<svg width="80" height="80" viewBox="0 0 80 80" fill="none" xmlns="http://www.w3.org/2000/svg">
<path d="M32 44L32 46H48V44H32Z" fill="url(#paint0_linear_221_43)"/>
<path d="M33 64L33 67H47V64H33Z" fill="url(#paint1_linear_221_43)"/>
<path d="M31.0001 10L31 13H49V10H31.0001Z" fill="url(#paint2_linear_221_43)"/>
<path d="M31.9387 13.7599C28.8315 12.6929 29.2991 8.85779 32.4156 8.39152L45.5428 8.3895C46.5422 8.38797 47.6674 8.26039 48.5977 8.70376C50.9606 9.82974 50.4711 12.9524 48.0688 13.7599V42.4004L51.156 42.397C54.1339 42.3954 55.4951 42.4363 55.4985 46.0687L55.5021 50.4132C55.5154 53.9375 54.9766 53.9559 51.7991 55.6443C51.0487 56.0431 50.3088 56.4555 49.5734 56.8813V63.0606C50.4926 63.06 56.3167 62.3819 55.5073 64.3148C55.3789 64.6215 51.4583 69.4267 50.9691 69.8733C50.4378 70.3583 49.8333 70.7243 49.1774 71.0131C47.5572 71.5995 45.9155 71.4592 44.2223 71.4577L34.8572 71.4591C30.9343 71.4594 29.8651 71.2852 27.5184 68.2817L25.7383 65.9579C25.3722 65.4783 23.411 63.3757 25.1182 63.0762C25.6497 62.9831 26.2579 63.0575 26.7994 63.0586L30.426 63.0606C30.4479 62.3564 30.4269 61.6474 30.4268 60.9426L30.426 44.1766C29.7529 44.2186 27.8196 44.2567 27.2313 44.1496C26.3475 43.9885 26.3291 42.6325 27.2007 42.4432C27.701 42.3345 28.3172 42.3982 28.829 42.3981L31.9387 42.4004V13.7599ZM37.1475 10.1735L34.1601 10.1719C33.5973 10.172 32.9742 10.122 32.4198 10.215C31.6949 10.3367 31.3251 11.2323 31.9159 11.7659C32.4506 12.249 34.5664 12.0447 35.3691 12.0491L42.7023 12.0503L45.7562 12.0539C46.3242 12.0541 46.964 12.1121 47.523 12.006C48.278 11.8627 48.5987 10.9627 47.9896 10.4145C47.5165 9.98868 45.1058 10.1771 44.3449 10.1746L37.1475 10.1735ZM34.2012 13.8257H33.7044V17.2904C34.1673 17.2885 34.6346 17.274 35.0968 17.2904C35.3822 17.5158 35.5882 17.804 35.6209 18.1758C35.7154 19.2555 34.4141 19.1074 33.7044 19.1069C33.7032 20.6757 33.6708 22.2529 33.7044 23.8208C34.2158 23.8188 34.9851 23.7195 35.3833 24.0998C35.763 24.4624 35.7505 25.105 35.3636 25.4574C34.9527 25.8317 34.2197 25.6859 33.7044 25.6929V30.3928C34.1919 30.3861 34.9872 30.2707 35.3642 30.6193C35.7413 30.968 35.7587 31.62 35.3877 31.9795C35.0014 32.3541 34.2024 32.2199 33.7044 32.224V37.149C34.206 37.1454 35.042 37.0345 35.4216 37.4181C35.7933 37.7938 35.6904 38.4233 35.3029 38.7446C34.9222 39.0603 34.1727 38.9355 33.7044 38.9408V42.4004H38.0161H46.3165V13.8257H34.2012ZM32.2286 44.1766V45.9506H47.8125V44.1766H32.2286ZM49.5734 44.1766V54.8021C50.4587 54.2827 51.3777 53.8236 52.2751 53.3255C52.7632 53.071 53.4196 52.7794 53.5914 52.2075C53.7589 51.6507 53.7268 45.9719 53.6612 44.9764C53.5745 43.6594 50.5768 44.1744 49.5734 44.1766ZM35.0968 47.7129H32.2286L32.2291 57.9718C32.2292 59.6614 32.2878 61.3736 32.2286 63.0606H45.0844H47.8125V47.7129C43.5773 47.7685 39.3331 47.7126 35.0968 47.7129ZM36.2396 64.856H33.0969C34.8899 66.5833 36.4713 66.2981 38.7906 66.2978L43.8251 66.2962C45.0966 66.1227 45.9701 65.7582 46.8882 64.856H36.2396ZM27.1763 64.856C27.7415 65.5497 28.288 66.2562 28.8312 66.967C31.1186 69.9611 31.7069 69.688 35.0967 69.6805L44.4945 69.6801C49.1105 69.6788 48.9862 69.6226 52.0267 65.8195C52.2813 65.5047 52.5245 65.1889 52.7554 64.856H48.9743C47.8714 67.5081 45.3171 68.0837 42.7913 68.0804L37.5383 68.0799C34.84 68.081 32.2764 67.673 30.9749 64.856H27.1763Z" fill="white"/>
<defs>
<linearGradient id="paint0_linear_221_43" x1="30.3269" y1="44.6667" x2="43.3768" y2="44.6667" gradientUnits="userSpaceOnUse">
<stop stop-color="#4318D1"/>
<stop offset="1" stop-color="#18D1B8"/>
</linearGradient>
<linearGradient id="paint1_linear_221_43" x1="31.5361" y1="65" x2="42.9547" y2="65" gradientUnits="userSpaceOnUse">
<stop stop-color="#4318D1"/>
<stop offset="1" stop-color="#18D1B8"/>
</linearGradient>
<linearGradient id="paint2_linear_221_43" x1="29.1178" y1="11" x2="43.7989" y2="11" gradientUnits="userSpaceOnUse">
<stop stop-color="#4318D1"/>
<stop offset="1" stop-color="#18D1B8"/>
</linearGradient>
</defs>
</svg>
