<svg width="80" height="80" viewBox="0 0 80 80" fill="none" xmlns="http://www.w3.org/2000/svg">
<path d="M45 38.8V41.3H65V38.8H45Z" fill="url(#paint0_linear_221_29)"/>
<path d="M28.9167 20.8759C29.0865 19.7724 29.3755 17.0249 30.5106 16.585C31.8365 16.5411 33.9168 16.4866 35.2314 16.5917C36.5706 16.6987 36.8648 19.6569 37.2318 20.8759C38.6824 21.2846 40.1447 21.8642 41.4307 22.6529C41.4383 22.646 41.4457 22.6389 41.4533 22.632L41.4916 22.5979C41.8966 22.2321 44.8038 20.4847 45.4753 20.9023C45.9381 21.1904 48.7256 23.908 49.1576 24.4594C49.7236 25.1814 47.8037 27.6105 47.2651 28.4101C47.8897 29.2294 48.5932 30.5643 49 31.5C49.2815 31.9132 49 31.5 47.4994 33.4569C47.2932 32.1186 46.7737 30.8918 46.119 29.7134C45.2325 28.1176 45.2711 28.4097 46.2632 26.8478L47.3861 25.0703C46.5289 24.3112 45.7304 23.4555 44.912 22.6529C44.1816 22.9902 42.0004 24.2924 41.4427 24.4062C41.1867 24.4585 38.4442 23.0492 37.9002 22.8494C37.2347 22.605 36.1238 22.6034 35.8111 21.861C35.4792 21.0728 34.9656 19.0357 34.8292 18.2377H31.2321C30.9303 19.3769 30.8052 20.5981 30.4303 21.7127C30.1685 22.4909 29.4319 22.4611 28.7524 22.6585C27.9624 22.8883 24.7439 24.5506 24.4389 24.4312C23.3593 24.0085 22.1537 23.202 21.1112 22.6529C20.2635 23.4621 19.5426 24.3926 18.7033 25.2097C19.2016 26.2273 20.9514 27.8561 20.3623 28.9772C19.767 30.1104 19.136 31.1412 18.7606 32.3751C18.5921 32.9291 18.481 33.974 17.8929 34.2655C17.2498 34.5841 14.9967 34.8269 14.1398 35.009C14.1243 36.1671 14.138 37.3268 14.1398 38.4852C14.7605 38.5547 17.5394 39.13 17.9991 39.383C18.5191 39.6695 18.5363 40.3685 18.6672 40.8763C19.1144 42.6104 20.0602 43.6994 20.4789 45.0592C20.6143 45.4994 19.1789 48.1598 18.8942 48.7C19.6464 49.4771 20.377 50.2742 21.1112 51.0684C21.4731 50.87 21.8346 50.6863 22.2102 50.5152C24.3385 49.6029 24.222 48.8481 26.2547 50.064C27.0005 50.5102 29.7863 51.3901 29.9925 51.6936C30.2961 52.1407 31.0309 54.9685 31.2321 55.6364H34.8292C35.0799 54.6414 35.6108 52.6955 36.0038 51.7688C36.2686 51.1443 37.0713 51.0877 37.6448 50.9193C38.9488 50.5366 39.8084 49.8796 40.9713 49.4432C41.9434 49.0783 43.7814 50.5766 44.912 51.0684C45.1463 50.7377 45.3745 50.5163 45.7057 50.2827C45.7919 51.0188 45.9078 51.7555 45.8446 52.4976C45.6204 52.8143 45.3859 52.9045 45.0259 53.0109C44.1171 52.764 42.3589 51.6911 41.4307 51.2002C40.5764 51.5154 38.1968 52.4592 37.4932 52.8533C36.9772 54.0125 36.7678 55.3138 36.3144 56.4988C35.8633 57.678 33.6734 57.2856 32.6201 57.2829C30.4289 57.2775 30.039 57.8211 29.3936 55.4839C29.1507 54.6045 28.9289 53.709 28.6105 52.8533C27.0221 52.353 26.205 51.8338 24.7976 51.2002C23.8388 51.6248 22.2169 52.5445 21.2839 52.806C20.1683 53.1185 17.3043 49.6849 17.1384 49.2659C16.8384 48.5083 18.3359 46.0856 18.7033 45.1968C17.8699 43.8483 17.2831 42.3265 16.8871 40.7931C15.915 40.6392 12.7061 40.2839 12.4737 39.1601C12.3854 38.7329 12.39 34.8848 12.455 34.3823C12.6128 33.1617 15.7367 32.9643 16.8871 32.777C17.2136 31.0845 17.963 29.891 18.7033 28.4101C18.255 27.5049 16.4057 25.6513 16.9608 24.6531C17.1731 24.2714 19.8847 21.4336 20.3 21.0909C21.0473 20.474 21.8966 21.1687 22.5767 21.5412L24.6423 22.6529C25.9633 21.8921 27.4209 21.2033 28.9167 20.8759Z" fill="white"/>
<path d="M33.5259 45.8453C33.3795 45.8534 33.2329 45.8578 33.0862 45.8586C32.9396 45.8595 32.793 45.8568 32.6465 45.8505C32.5 45.8441 32.3537 45.8342 32.2076 45.8207C32.0616 45.8071 31.916 45.79 31.7708 45.7693C31.6255 45.7486 31.4809 45.7244 31.3369 45.6966C31.1929 45.6688 31.0496 45.6375 30.9072 45.6027C30.7647 45.5679 30.6232 45.5295 30.4826 45.4878C30.342 45.446 30.2025 45.4008 30.0641 45.3522C29.9257 45.3036 29.7886 45.2516 29.6528 45.1963C29.517 45.1409 29.3827 45.0822 29.2497 45.0203C29.1168 44.9583 28.9855 44.8931 28.8557 44.8247C28.726 44.7564 28.598 44.6848 28.4718 44.6101C28.3456 44.5354 28.2212 44.4577 28.0988 44.3769C27.9764 44.296 27.8561 44.2123 27.7378 44.1257C27.6195 44.0389 27.5034 43.9494 27.3894 43.857C27.2756 43.7646 27.1641 43.6695 27.0548 43.5716C26.9456 43.4737 26.8389 43.3732 26.7346 43.27C26.6303 43.1669 26.5285 43.0613 26.4294 42.9532C26.3304 42.845 26.234 42.7345 26.1403 42.6217C26.0467 42.5089 25.9558 42.3937 25.8678 42.2764C25.7797 42.1591 25.6946 42.0397 25.6125 41.9182C25.5303 41.7967 25.4512 41.6732 25.3752 41.5478C25.2991 41.4225 25.2261 41.2953 25.1562 41.1664C25.0863 41.0375 25.0197 40.9069 24.9562 40.7746C24.8928 40.6424 24.8327 40.5087 24.7758 40.3735C24.719 40.2382 24.6654 40.1017 24.6152 39.9639C24.5651 39.8261 24.5183 39.6871 24.475 39.547C24.4317 39.4069 24.3918 39.2657 24.3553 39.1237C24.319 38.9817 24.2861 38.8388 24.2568 38.6951C24.2273 38.5514 24.2014 38.407 24.1791 38.2621C24.1568 38.1171 24.1381 37.9717 24.1229 37.8258C24.1078 37.6799 24.0962 37.5338 24.0882 37.3873C24.0802 37.2409 24.0758 37.0944 24.0751 36.9476C24.0743 36.801 24.0771 36.6544 24.0835 36.5079C24.0899 36.3614 24.0999 36.2151 24.1135 36.069C24.1272 35.923 24.1443 35.7774 24.1651 35.6322C24.1858 35.4871 24.2101 35.3425 24.2379 35.1984C24.2658 35.0544 24.2972 34.9112 24.332 34.7687C24.3669 34.6263 24.4053 34.4848 24.4472 34.3442C24.4889 34.2036 24.5342 34.0641 24.5829 33.9259C24.6315 33.7875 24.6836 33.6504 24.739 33.5146C24.7944 33.3788 24.8531 33.2444 24.9152 33.1116C24.9771 32.9786 25.0424 32.8473 25.1109 32.7176C25.1793 32.5879 25.2509 32.4599 25.3257 32.3337C25.4004 32.2076 25.4782 32.0833 25.559 31.961C25.6399 31.8385 25.7238 31.7182 25.8105 31.6C25.8973 31.4817 25.9869 31.3656 26.0794 31.2518C26.1717 31.138 26.2669 31.0264 26.3649 30.9172C26.4628 30.8081 26.5633 30.7014 26.6665 30.5971C26.7697 30.4929 26.8754 30.3913 26.9836 30.2922C27.0917 30.1931 27.2022 30.0967 27.3151 30.0031C27.428 29.9095 27.5431 29.8187 27.6604 29.7308C27.7778 29.6428 27.8973 29.5578 28.0188 29.4756C28.1404 29.3935 28.2639 29.3145 28.3893 29.2385C28.5147 29.1625 28.6419 29.0895 28.7709 29.0196C28.8999 28.9499 29.0306 28.8833 29.1628 28.82C29.2951 28.7566 29.4288 28.6964 29.564 28.6396C29.6992 28.5828 29.8358 28.5294 29.9737 28.4793C30.1115 28.4292 30.2504 28.3825 30.3906 28.3392C30.5308 28.296 30.6719 28.2562 30.8139 28.2197C30.956 28.1834 31.099 28.1506 31.2427 28.1213C31.3864 28.0919 31.5307 28.0662 31.6757 28.044C31.8206 28.0217 31.9661 28.003 32.112 27.9879C32.2579 27.9728 32.404 27.9613 32.5504 27.9534C32.6968 27.9455 32.8433 27.9411 32.9898 27.9404C33.1365 27.9397 33.283 27.9426 33.4294 27.949C33.5758 27.9555 33.722 27.9655 33.868 27.9792C34.0139 27.9928 34.1594 28.01 34.3046 28.0309C34.4497 28.0516 34.5942 28.0759 34.7381 28.1038C34.882 28.1317 35.0251 28.1631 35.1675 28.198C35.3098 28.2329 35.4512 28.2713 35.5917 28.3131C35.7322 28.355 35.8716 28.4002 36.0099 28.4489C36.1481 28.4976 36.2851 28.5497 36.4209 28.6051C36.5565 28.6605 36.6908 28.7191 36.8236 28.7811C36.9564 28.8432 37.0876 28.9084 37.2172 28.9768C37.3468 29.0453 37.4747 29.1168 37.6008 29.1916C37.7269 29.2663 37.8512 29.344 37.9735 29.4248C38.0958 29.5056 38.216 29.5894 38.3342 29.6762C38.4524 29.7628 38.5684 29.8524 38.6821 29.9448C38.7959 30.0372 38.9074 30.1323 39.0165 30.2302C39.1256 30.3281 39.2323 30.4286 39.3364 30.5317C39.4406 30.6348 39.5422 30.7404 39.6412 30.8485C39.7402 30.9566 39.8365 31.0671 39.9301 31.1799C40.0237 31.2927 40.1144 31.4077 40.2024 31.525C40.2903 31.6423 40.3753 31.7616 40.4573 31.8832C40.5394 32.0046 40.6184 32.128 40.6944 32.2534C40.7705 32.3786 40.8434 32.5057 40.9131 32.6347C40.9829 32.7636 41.0495 32.8941 41.1129 33.0263C41.1763 33.1584 41.2364 33.2921 41.2932 33.4272C41.35 33.5623 41.4035 33.6987 41.4536 33.8365C41.5037 33.9743 41.5504 34.1132 41.5937 34.2533C41.637 34.3933 41.6769 34.5343 41.7132 34.6763C41.7496 34.8183 41.7824 34.9611 41.8118 35.1047C41.8411 35.2483 41.867 35.3926 41.8893 35.5374C41.9115 35.6823 41.9303 35.8276 41.9455 35.9734C41.9606 36.1192 41.9721 36.2653 41.9802 36.4117C41.9882 36.5581 41.9926 36.7046 41.9933 36.8511C41.9941 36.9977 41.9913 37.1442 41.9849 37.2906C41.9785 37.4371 41.9686 37.5833 41.955 37.7293C41.9414 37.8752 41.9242 38.0207 41.9035 38.1659C41.8827 38.3109 41.8585 38.4555 41.8307 38.5995C41.8029 38.7434 41.7716 38.8865 41.7368 39.0289C41.7019 39.1712 41.6636 39.3127 41.6218 39.4531C41.5801 39.5937 41.5349 39.7332 41.4862 39.8715C41.4376 40.0096 41.3856 40.1466 41.3302 40.2824C41.2749 40.4181 41.2163 40.5524 41.1543 40.6853C41.0924 40.8182 41.0272 40.9494 40.9589 41.0791C40.8905 41.2087 40.8189 41.3366 40.7443 41.4627C40.6696 41.5889 40.5919 41.7132 40.5112 41.8356C40.4304 41.9578 40.3467 42.0781 40.26 42.1964C40.1734 42.3146 40.0839 42.4306 39.9915 42.5444C39.8992 42.6582 39.804 42.7697 39.7061 42.8789C39.6084 42.9881 39.5079 43.0948 39.4048 43.1991C39.3018 43.3032 39.1963 43.4048 39.0882 43.504C38.9801 43.603 38.8697 43.6993 38.7569 43.793C38.6441 43.8866 38.5291 43.9774 38.4118 44.0654C38.2947 44.1534 38.1754 44.2385 38.054 44.3206C37.9325 44.4027 37.8091 44.4818 37.6838 44.5579C37.5585 44.6339 37.4314 44.7069 37.3026 44.7767C37.1737 44.8466 37.0432 44.9133 36.911 44.9767C36.7789 45.0401 36.6453 45.1002 36.5102 45.1571C36.375 45.214 36.2386 45.2675 36.1009 45.3177C35.9632 45.3679 35.8243 45.4146 35.6842 45.4579C35.5442 45.5013 35.4032 45.5412 35.2612 45.5776C35.1193 45.614 34.9765 45.647 34.8329 45.6765C34.6893 45.7058 34.545 45.7317 34.4002 45.7541C34.2553 45.7765 34.11 45.7953 33.9642 45.8105C33.8184 45.8257 33.6723 45.8373 33.5259 45.8453ZM32.3211 29.6765C32.203 29.6881 32.0854 29.7027 31.9681 29.7202C31.8507 29.7377 31.7339 29.7581 31.6176 29.7813C31.5013 29.8045 31.3856 29.8305 31.2705 29.8594C31.1554 29.8882 31.0411 29.9199 30.9276 29.9544C30.8141 29.9888 30.7015 30.0261 30.5899 30.066C30.4783 30.1061 30.3676 30.1489 30.258 30.1943C30.1484 30.2397 30.04 30.2878 29.9328 30.3385C29.8256 30.3892 29.7197 30.4425 29.615 30.4984C29.5105 30.5543 29.4073 30.6128 29.3056 30.6738C29.2039 30.7349 29.1036 30.7983 29.0049 30.8643C28.9063 30.9301 28.8093 30.9983 28.714 31.069C28.6188 31.1396 28.5253 31.2126 28.4337 31.2879C28.3419 31.3631 28.2521 31.4405 28.1642 31.5202C28.0763 31.5998 27.9904 31.6816 27.9065 31.7654C27.8225 31.8492 27.7407 31.9351 27.6611 32.023C27.5814 32.1109 27.5039 32.2006 27.4286 32.2923C27.3534 32.3839 27.2804 32.4774 27.2096 32.5727C27.1389 32.6679 27.0706 32.7648 27.0045 32.8634C26.9386 32.962 26.8752 33.0621 26.8141 33.1639C26.753 33.2656 26.6945 33.3688 26.6386 33.4733C26.5825 33.5779 26.5291 33.6837 26.4783 33.7909C26.4275 33.8982 26.3794 34.0066 26.334 34.1161C26.2885 34.2257 26.2457 34.3363 26.2056 34.4479C26.1656 34.5595 26.1283 34.6721 26.0937 34.7856C26.0591 34.8991 26.0274 35.0133 25.9984 35.1283C25.9695 35.2434 25.9434 35.3591 25.9202 35.4754C25.8969 35.5917 25.8764 35.7086 25.8589 35.8259C25.8413 35.9432 25.8267 36.0609 25.8149 36.1789C25.8031 36.2969 25.7943 36.4152 25.7883 36.5337C25.7824 36.6521 25.7793 36.7706 25.7791 36.8892C25.779 37.0079 25.7818 37.1265 25.7874 37.2449C25.793 37.3634 25.8016 37.4817 25.813 37.5998C25.8245 37.7179 25.8388 37.8356 25.856 37.953C25.8733 38.0703 25.8934 38.1872 25.9163 38.3035C25.9393 38.4199 25.9651 38.5356 25.9936 38.6507C26.0222 38.7659 26.0537 38.8803 26.0879 38.9939C26.1222 39.1074 26.1592 39.22 26.199 39.3318C26.2387 39.4436 26.2811 39.5544 26.3263 39.664C26.3715 39.7737 26.4194 39.8822 26.4699 39.9895C26.5204 40.0968 26.5735 40.2028 26.6292 40.3076C26.6849 40.4123 26.7432 40.5156 26.804 40.6175C26.8647 40.7193 26.9279 40.8197 26.9936 40.9185C27.0593 41.0172 27.1274 41.1143 27.1978 41.2098C27.2683 41.3052 27.341 41.3988 27.416 41.4907C27.4911 41.5826 27.5683 41.6726 27.6478 41.7606C27.7273 41.8487 27.8088 41.9348 27.8924 42.019C27.9761 42.103 28.0618 42.1849 28.1495 42.2648C28.2372 42.3447 28.3268 42.4224 28.4184 42.4979C28.5098 42.5734 28.6031 42.6466 28.6983 42.7175C28.7933 42.7884 28.8901 42.8569 28.9885 42.9231C29.0869 42.9893 29.1869 43.053 29.2886 43.1143C29.3901 43.1755 29.4931 43.2342 29.5975 43.2905C29.702 43.3467 29.8078 43.4003 29.9149 43.4513C30.022 43.5024 30.1302 43.5507 30.2397 43.5965C30.3491 43.6422 30.4597 43.6852 30.5713 43.7255C30.6828 43.7658 30.7953 43.8033 30.9087 43.8381C31.0221 43.8729 31.1363 43.9049 31.2513 43.9342C31.3662 43.9633 31.4819 43.9897 31.5982 44.0132C31.7144 44.0367 31.8312 44.0574 31.9484 44.0752C32.0657 44.093 32.1833 44.1079 32.3014 44.1199C32.4194 44.1319 32.5376 44.141 32.656 44.1472C32.7745 44.1535 32.8931 44.1568 33.0117 44.1572C33.1303 44.1577 33.2489 44.1552 33.3674 44.1497C33.4859 44.1443 33.6042 44.136 33.7223 44.1249C33.8407 44.1137 33.9588 44.0995 34.0765 44.0826C34.1942 44.0655 34.3114 44.0455 34.4282 44.0227C34.5449 43.9999 34.661 43.9743 34.7765 43.9459C34.892 43.9174 35.0067 43.886 35.1206 43.8519C35.2345 43.8177 35.3476 43.7808 35.4597 43.7411C35.5719 43.7014 35.6829 43.659 35.7929 43.6138C35.903 43.5686 36.0119 43.5208 36.1195 43.4702C36.2272 43.4197 36.3336 43.3666 36.4387 43.3109C36.5437 43.2552 36.6474 43.1969 36.7497 43.136C36.8518 43.0752 36.9525 43.0118 37.0516 42.946C37.1507 42.8803 37.2482 42.8122 37.3439 42.7416C37.4396 42.671 37.5336 42.5981 37.6258 42.5229C37.718 42.4477 37.8082 42.3703 37.8965 42.2906C37.9848 42.2109 38.0712 42.1292 38.1555 42.0454C38.2399 41.9614 38.3221 41.8755 38.4021 41.7876C38.4823 41.6997 38.5603 41.6099 38.636 41.5182C38.7117 41.4264 38.7851 41.3329 38.8561 41.2375C38.9272 41.1421 38.9959 41.045 39.0623 40.9463C39.1286 40.8476 39.1924 40.7473 39.2538 40.6454C39.3152 40.5435 39.3741 40.4401 39.4304 40.3354C39.4867 40.2306 39.5404 40.1246 39.5915 40.0172C39.6426 39.9097 39.691 39.8011 39.7368 39.6914C39.7826 39.5815 39.8256 39.4706 39.8659 39.3588C39.9062 39.2468 39.9438 39.134 39.9786 39.0203C40.0132 38.9065 40.0452 38.7919 40.0743 38.6767C40.1035 38.5614 40.1298 38.4454 40.1532 38.3288C40.1766 38.2122 40.1971 38.095 40.2147 37.9773C40.2324 37.8598 40.2472 37.7418 40.2591 37.6234C40.271 37.5051 40.2799 37.3865 40.286 37.2677C40.292 37.1489 40.2951 37.03 40.2953 36.9111C40.2956 36.7922 40.2928 36.6733 40.2871 36.5545C40.2814 36.4356 40.2729 36.317 40.2614 36.1986C40.25 36.0802 40.2356 35.9622 40.2183 35.8445C40.201 35.7268 40.1809 35.6096 40.1579 35.4929C40.1348 35.3763 40.1088 35.2602 40.0801 35.1447C40.0514 35.0293 40.0198 34.9147 39.9854 34.8009C39.9511 34.687 39.9139 34.574 39.8739 34.4619C39.8339 34.3499 39.7913 34.2389 39.746 34.1291C39.7006 34.0191 39.6525 33.9103 39.6016 33.8028C39.5509 33.6952 39.4976 33.5889 39.4415 33.484C39.3856 33.379 39.3271 33.2755 39.2661 33.1734C39.205 33.0713 39.1415 32.9707 39.0755 32.8718C39.0095 32.7729 38.9411 32.6756 38.8703 32.58C38.7995 32.4844 38.7264 32.3906 38.651 32.2985C38.5756 32.2066 38.498 32.1165 38.4182 32.0283C38.3384 31.9401 38.2564 31.8539 38.1724 31.7698C38.0883 31.6856 38.0023 31.6036 37.9142 31.5237C37.8261 31.4438 37.736 31.366 37.6441 31.2905C37.5522 31.215 37.4585 31.1418 37.3629 31.0709C37.2674 31.0001 37.1703 30.9316 37.0714 30.8655C36.9725 30.7994 36.872 30.7357 36.77 30.6745C36.668 30.6133 36.5646 30.5547 36.4597 30.4986C36.3548 30.4426 36.2486 30.3891 36.1411 30.3382C36.0335 30.2873 35.9248 30.2392 35.8149 30.1937C35.7051 30.1482 35.5941 30.1054 35.4821 30.0653C35.3701 30.0252 35.2572 29.9879 35.1434 29.9534C35.0296 29.9188 34.915 29.8871 34.7996 29.8583C34.6842 29.8293 34.5682 29.8033 34.4514 29.7802C34.3348 29.757 34.2176 29.7367 34.1 29.7193C33.9823 29.7019 33.8643 29.6874 33.7459 29.6757C33.6276 29.6641 33.509 29.6554 33.3902 29.6496C33.2714 29.6439 33.1525 29.641 33.0336 29.641C32.9145 29.6411 32.7956 29.6441 32.6768 29.6501C32.5581 29.6559 32.4395 29.6647 32.3211 29.6765Z" fill="white"/>
<path d="M46.7948 37.3012C47.2327 35.6958 47.4593 33.4107 49.3493 33.015C51.9715 32.9811 54.5982 33.0153 57.2209 33.0151L59.9616 33.0131C63.8858 33.008 62.9776 33.9628 63.9476 37.3012C65.4589 37.4175 66.7421 38.7866 66.5711 40.3311C66.448 41.4433 65.7504 42.017 64.9306 42.6719C64.8172 43.2865 64.7847 43.922 64.729 44.5443L63.7293 55.1296C63.4534 58.0147 63.6484 60.678 60.7419 62.3111C59.0158 63.2204 56.0295 62.8972 54.079 62.8984C51.1895 62.9005 48.4453 63.0295 47.4943 59.4055C47.0443 57.6909 46.9645 54.5656 46.7852 52.7328L46.1213 45.7845C46.0299 44.7589 45.8648 43.6991 45.8604 42.6719C43.0263 41.5183 43.503 37.6916 46.7948 37.3012ZM49.3493 34.7393C49.0022 35.5532 48.8163 36.4463 48.5921 37.3012H61.4745H62.1504C61.9642 36.4551 61.6808 35.6072 61.6389 34.7393H49.3493ZM46.8948 38.9907C45.8709 39.0599 45.2061 40.2055 46.1144 40.893C46.6947 41.3322 48.2069 41.1457 48.9008 41.1456L63.7247 41.1448C65.1562 40.9202 65.2655 39.1126 63.7552 39.0042C63.0968 38.957 62.4198 38.9886 61.7592 38.9887L46.8948 38.9907ZM47.5935 42.8242C47.5938 43.942 47.7469 45.0719 47.8513 46.1847L48.8391 56.6228C49.2679 60.8034 49.7493 61.1757 53.6005 61.1775L57.5131 61.1746C59.1864 61.1579 60.3763 60.8056 61.2606 59.336C61.793 58.2482 61.7602 56.9828 61.8782 55.7982L62.8634 45.4553C62.9495 44.5939 63.103 43.6887 63.0709 42.8242H47.5935Z" fill="white"/>
<defs>
<linearGradient id="paint0_linear_221_29" x1="46.6273" y1="41.3263" x2="55.0037" y2="41.3263" gradientUnits="userSpaceOnUse">
<stop stop-color="#4318D1"/>
<stop offset="1" stop-color="#18D1B8"/>
</linearGradient>
</defs>
</svg>
