<svg width="80" height="80" viewBox="0 0 80 80" fill="none" xmlns="http://www.w3.org/2000/svg">
<path d="M28.7223 23.5878C27.5309 23.631 27.4647 22.8306 27.9683 22.003C30.2131 18.3155 25.3959 16.6088 27.5864 11.4632C27.8224 10.9086 28.059 10.1503 28.7223 10.0068C29.1001 9.96948 29.4902 10.0812 29.6325 10.4758C29.9544 11.3686 27.6565 13.3153 29.0009 16.1036C30.1236 18.432 30.8363 19.7896 29.5722 22.5249C29.3949 22.9085 29.1396 23.4334 28.7223 23.5878Z" fill="white"/>
<path d="M33.2669 22.7496C33.3633 22.3616 33.5623 21.9925 33.699 21.6163C34.8921 18.3303 30.9868 17.1145 32.7719 12.2391C33.0415 11.5027 33.5129 10.3585 34.2643 10.0067C34.6515 9.97261 35.0667 10.0854 35.2287 10.4849C35.5931 11.3837 32.9165 13.3641 34.3764 16.595C34.6181 17.1302 34.9366 17.6277 35.1509 18.1759C35.6462 19.444 35.7674 23.0047 34.2643 23.5878C33.6535 23.5747 33.3991 23.3516 33.2669 22.7496Z" fill="white"/>
<path d="M20.9693 58.5262C19.6412 58.6203 20.0018 57.4233 20.1927 56.5434C20.8435 53.545 21.8242 51.1459 22.9845 48.3353L24.0039 45.8048C24.1793 45.3802 24.2688 45.1867 24.7127 45.0022C26.5699 44.9126 25.0562 47.5551 24.7484 48.298C23.6271 51.0042 22.4809 53.6702 21.8483 56.5398C21.6966 57.2279 21.7647 58.2735 20.9693 58.5262Z" fill="white"/>
<path d="M43.9727 29.5504L44.4229 27L19 27.5L21.4727 30.5504L42.4727 30.6124L43.9727 29.5504Z" fill="url(#paint0_linear_221_48)"/>
<path d="M52.283 33.3966L52.2522 30.981L50.2524 31.0064L50.2833 33.4323L52.283 33.3966Z" fill="url(#paint1_linear_221_48)"/>
<path d="M50.9706 29.7163C51.4859 27.7726 52.9397 27.3901 54.5117 26.4566L65.875 19.8278C67.1508 19.0878 68.2765 18.159 69.7895 18.0153C73.598 17.6746 75.6743 23.1037 71.6978 25.259C70.7026 25.7984 69.6554 26.2639 68.6429 26.7718L57.2298 32.4814C55.3463 33.4319 55.3324 33.6108 53.1712 33.5423L53.1321 33.5414C51.9929 33.8669 50.8141 35.242 50.0641 33.5414C47.2012 34.8645 43.9526 36.6953 41.1533 38.1977C42.0098 40.7537 43.0527 43.1972 44.0387 45.6994C44.9463 48.0023 47.47 54.3928 47.6616 56.5979C48.0349 60.895 44.5322 64.7951 40.2837 65.1406C39.2179 65.2273 38.124 65.1806 37.0543 65.1806L26.5727 65.1812C25.2597 65.1828 23.8787 65.276 22.5867 65.0184C19.0079 64.3052 16.3246 61.2344 16.0504 57.5966C15.7247 55.3094 17.0548 52.3198 17.8292 50.2259C18.6942 47.8867 22.6536 38.8517 22.4313 36.773C22.2491 35.0713 21.5564 32.0373 20.4363 30.7491C19.6754 29.874 18.2232 29.4956 18.1181 28.1608C18.022 26.9408 18.9791 26.2171 20.1074 26.1754C21.7037 26.1162 23.3238 26.177 24.9231 26.1772L41.0693 26.1762C42.5477 26.1758 45.3974 25.6136 45.39 27.9385C45.3857 29.3631 43.9678 29.8042 43.1401 30.6399C42.1482 31.6413 41.1358 34.8037 41.1533 36.3795C43.7527 35.1725 46.816 33.4749 49.3347 32.1045C49.1663 31.8402 49.0357 31.5801 48.9404 31.2816C49.1342 30.3423 50.1682 30.0415 50.9706 29.7163ZM69.7895 19.6105C69.0262 19.74 68.411 20.2041 67.7586 20.5913L57.1497 26.7695C56.5394 27.1259 53.1182 29.0127 52.8757 29.3398C52.3271 30.0791 53.1 32.8827 55.0311 31.713C55.672 31.5543 56.5946 30.9758 57.2114 30.6671L68.3069 25.1479C69.2591 24.6713 71.4244 23.8903 71.9691 22.9597C72.8667 21.4257 71.5302 19.3962 69.7895 19.6105ZM19.9249 27.7911C19.3888 28.3462 20.5376 28.6947 20.9292 29.0077C21.3372 29.3339 21.6987 29.7449 22.0603 30.1215L34.96 30.1221C37.1229 30.1221 39.2982 30.1713 41.4599 30.1215C41.737 29.7713 42.0163 29.4332 42.3505 29.1354C42.7631 28.8019 43.4868 28.4787 43.6997 27.9794L43.6944 27.8698C43.4164 27.6281 41.367 27.7911 40.909 27.7911H19.9249ZM51.368 31.2816C51.174 31.3636 50.9625 31.438 50.7778 31.5376C50.8633 31.7155 51.1929 32.532 51.368 32.5579C51.5631 32.4711 51.7589 32.3871 51.9464 32.2843C51.8567 32.1196 51.4962 31.3444 51.368 31.2816ZM23.4621 31.713H22.7865C23.4855 33.4991 24.3887 36.5693 23.9686 38.457C23.7384 39.4917 23.2621 40.4328 22.9608 41.4389C24.8384 41.4638 26.7194 41.4389 28.5973 41.4389H39.7654H40.5333C39.2418 37.3192 39.0152 36.0928 40.6728 31.713H23.4621ZM22.2798 43.0339C21.1523 46.2602 17.9395 53.3111 17.6654 56.4057C17.3403 60.076 20.2551 63.3238 23.9183 63.5728C24.8912 63.6388 25.8803 63.6048 26.8555 63.6035L36.9561 63.6031C38.2813 63.6029 39.8774 63.8029 41.1533 63.3613C44.4655 62.5395 46.7276 59.1163 45.868 55.7572C45.4941 54.2956 44.9156 52.8568 44.4192 51.432C43.439 48.6186 42.4623 45.7177 41.1533 43.0339H22.2798Z" fill="white"/>
<defs>
<linearGradient id="paint0_linear_221_48" x1="19.5" y1="29" x2="35" y2="29" gradientUnits="userSpaceOnUse">
<stop stop-color="#4318D1"/>
<stop offset="1" stop-color="#18D1B8"/>
</linearGradient>
<linearGradient id="paint1_linear_221_48" x1="50.5" y1="32" x2="52" y2="32" gradientUnits="userSpaceOnUse">
<stop stop-color="#4318D1"/>
<stop offset="1" stop-color="#18D1B8"/>
</linearGradient>
</defs>
</svg>
