<svg width="80" height="80" viewBox="0 0 80 80" fill="none" xmlns="http://www.w3.org/2000/svg">
<path d="M27.971 30.6334L25.2582 30.635C23.2691 30.6354 21.7565 30.5732 20.1608 29.2196C17.8025 27.2193 18.062 25.1312 18.0574 22.433C18.0534 20.0658 17.7945 18.102 19.4679 16.1697C20.6631 14.7895 22.2242 14.1591 24.0145 14.0283L56.6668 14.028C57.9547 14.028 59.489 13.9545 60.7459 14.0458C62.5117 14.1742 61.9118 17.2509 61.9118 18.6289L61.9146 59.5783C61.9146 60.2488 61.9485 60.94 61.8725 61.6063C61.462 65.2059 57.8753 64.8624 55.2951 64.8591L22.6857 64.8621C17.828 64.8621 18.0845 62.4438 18.0577 58.3752C18.0423 56.0564 17.508 55.5704 20.0219 55.5951L31.6711 55.5997C31.4465 55.3088 31.2166 55.022 30.9869 54.735C30.7633 54.7393 30.5397 54.737 30.3159 54.735C23.7786 54.9662 22.9936 45.1413 29.7958 44.4215C29.7875 43.2677 29.3517 41.9582 30.7325 41.9231C32.9396 41.8673 35.1623 41.9238 37.371 41.9244L41.4126 41.922C43.8247 41.9148 43.8594 41.5957 43.862 43.9518L43.8654 49.7822C43.8658 52.3233 43.8612 53.4974 42.1581 55.5997H49.3513C51.3053 46.6438 51.3355 39.4222 47.8458 30.6334H43.5143C43.2861 31.395 42.0421 35.3639 41.6991 35.7306C41.4522 35.9946 39.9054 35.8833 39.4964 35.8807C39.5107 38.5775 40.0944 38.8824 37.5845 38.8783L35.3686 38.8775C31.8107 38.8762 31.9783 39.5489 32.0016 35.8807C29.1421 35.8977 29.5928 36.1403 28.7746 33.4528C28.4932 32.5283 28.1455 31.5831 27.971 30.6334ZM24.0145 15.7415C19.7599 16.1259 19.7264 19.2135 19.7259 22.5959C19.7252 25.3301 19.6908 28.4194 23.3957 28.878C24.4784 29.0121 25.7996 28.9255 26.9011 28.9256L56.0084 28.9243H60.2044V15.7415H24.0145ZM29.6696 30.6334C29.9703 31.8309 30.4287 32.9854 30.7386 34.1813H40.5474C40.6502 33.8692 40.8012 33.5936 40.9593 33.3066C41.0086 32.5347 41.4955 31.4221 41.726 30.6334H29.6696ZM49.669 30.6334C52.5791 38.3859 53.1566 45.019 51.6189 53.315C51.4943 53.9872 51.3025 54.6748 51.2432 55.3538L51.2203 55.5997H58.9551H60.2044V30.6334H49.669ZM33.8161 35.8807L33.7154 35.9098C33.5658 36.1824 33.6545 36.8859 33.6616 37.2134H37.7038L37.7947 37.1881C37.9054 36.8197 37.8346 36.2707 37.8317 35.8807H33.8161ZM31.4892 43.6046C31.4096 44.6439 31.4894 45.7328 31.4898 46.7787L31.4894 49.5532C31.4885 50.381 31.4263 51.2801 31.6118 52.0897C31.9643 53.627 33.4191 55.3626 35.0668 55.4933C35.573 55.5334 36.0941 55.4876 36.6019 55.4866C38.5592 55.483 39.4843 55.8299 40.9593 54.3241C42.4032 52.6685 42.1603 50.9876 42.1583 48.9381L42.1581 43.6046H31.4892ZM29.6696 46.197C26.7507 46.7263 25.4944 50.3778 27.971 52.3224C28.6084 52.7838 29.2579 52.9745 30.0455 52.9881C29.609 51.1326 30.0042 46.6827 29.8133 46.1972L29.6696 46.197ZM32.5559 57.3037H19.7255C19.719 59.9682 18.863 63.1988 22.3658 63.2106L47.4956 63.2099L57.0731 63.2111C61.1593 63.2088 60.2083 60.5872 60.2044 57.3037H32.5559Z" fill="white"/>
<path d="M37.9928 37.2761L37.9724 35.6761L33.5103 35.733L33.5308 37.3398L37.9928 37.2761Z" fill="url(#paint0_linear_221_55)"/>
<path d="M52.5401 22.2588L52.5193 20.6239L50.5707 20.6487L50.5916 22.2905L52.5401 22.2588Z" fill="url(#paint1_linear_221_55)"/>
<path d="M45.9998 22.9872L45.9612 19.9554L38 20.0569L38.0388 23.1015L45.9998 22.9872Z" fill="url(#paint2_linear_221_55)"/>
<path d="M51.6815 23.8716C51.6415 23.8755 51.6015 23.8785 51.5614 23.8805C51.5212 23.8824 51.481 23.8834 51.4409 23.8834C51.4007 23.8833 51.3605 23.8823 51.3204 23.8803C51.2802 23.8783 51.2402 23.8754 51.2003 23.8714C51.1603 23.8674 51.1204 23.8625 51.0806 23.8566C51.0409 23.8506 51.0013 23.8437 50.9618 23.8358C50.9225 23.8279 50.8833 23.819 50.8443 23.8092C50.8054 23.7993 50.7667 23.7885 50.7282 23.7769C50.6898 23.7651 50.6517 23.7524 50.6139 23.7388C50.5761 23.7251 50.5386 23.7106 50.5015 23.6952C50.4644 23.6796 50.4278 23.6632 50.3915 23.6459C50.3553 23.6287 50.3194 23.6106 50.284 23.5916C50.2486 23.5725 50.2137 23.5526 50.1793 23.5317C50.145 23.511 50.1111 23.4894 50.0778 23.4669C50.0444 23.4445 50.0117 23.4213 49.9795 23.3972C49.9473 23.3731 49.9157 23.3483 49.8848 23.3227C49.8539 23.297 49.8236 23.2707 49.7939 23.2436C49.7643 23.2164 49.7353 23.1885 49.707 23.16C49.6788 23.1315 49.6512 23.1022 49.6243 23.0723C49.5975 23.0424 49.5714 23.0119 49.5461 22.9806C49.5207 22.9495 49.4962 22.9177 49.4725 22.8853C49.4487 22.8529 49.4258 22.8199 49.4036 22.7864C49.3815 22.7529 49.3602 22.7188 49.3398 22.6842C49.3193 22.6495 49.2997 22.6144 49.2811 22.5789C49.2623 22.5434 49.2444 22.5074 49.2275 22.4709C49.2106 22.4345 49.1946 22.3977 49.1795 22.3605C49.1644 22.3232 49.1502 22.2856 49.1368 22.2477C49.1236 22.2097 49.1113 22.1715 49.1 22.133C49.0885 22.0944 49.0781 22.0556 49.0687 22.0166C49.0592 21.9775 49.0508 21.9382 49.0433 21.8988C49.0356 21.8593 49.0291 21.8196 49.0236 21.7798C49.018 21.7401 49.0135 21.7002 49.0098 21.6602C49.0062 21.6202 49.0036 21.5801 49.002 21.5398C49.0003 21.4997 48.9997 21.4596 49.0001 21.4194C49.0004 21.3792 49.0018 21.339 49.0042 21.2989C49.0066 21.2588 49.0099 21.2188 49.0142 21.1789C49.0186 21.1389 49.0239 21.0991 49.0301 21.0594C49.0364 21.0197 49.0436 20.9802 49.0518 20.9409C49.0602 20.9016 49.0694 20.8624 49.0795 20.8236C49.0897 20.7847 49.1009 20.7461 49.1129 20.7078C49.125 20.6695 49.138 20.6315 49.152 20.5937C49.166 20.556 49.1808 20.5187 49.1965 20.4819C49.2124 20.4449 49.2291 20.4083 49.2467 20.3722C49.2643 20.336 49.2828 20.3004 49.3022 20.2652C49.3215 20.2299 49.3417 20.1953 49.3628 20.1611C49.3838 20.1268 49.4057 20.0931 49.4286 20.06C49.4513 20.0269 49.4748 19.9943 49.4992 19.9623C49.5235 19.9305 49.5486 19.8992 49.5745 19.8684C49.6003 19.8377 49.6269 19.8076 49.6543 19.7781C49.6817 19.7487 49.7098 19.7201 49.7386 19.692C49.7674 19.664 49.7969 19.6367 49.827 19.6102C49.8572 19.5836 49.888 19.5578 49.9193 19.5327C49.9508 19.5077 49.9828 19.4834 50.0154 19.4598C50.048 19.4364 50.0812 19.4137 50.115 19.3919C50.1487 19.3701 50.1829 19.3491 50.2176 19.3289C50.2524 19.3088 50.2877 19.2895 50.3234 19.2711C50.3591 19.2528 50.3953 19.2353 50.4318 19.2186C50.4684 19.2019 50.5054 19.1862 50.5428 19.1714C50.5802 19.1566 50.6179 19.1428 50.6559 19.1298C50.6939 19.1169 50.7323 19.1049 50.7709 19.0939C50.8095 19.0829 50.8485 19.0728 50.8876 19.0637C50.9267 19.0546 50.966 19.0464 51.0056 19.0392C51.0452 19.032 51.0849 19.0258 51.1247 19.0206C51.1645 19.0154 51.2045 19.0112 51.2445 19.008C51.2841 19.0047 51.3238 19.0025 51.3636 19.0012C51.4032 19 51.4429 18.9997 51.4826 19.0003C51.5224 19.001 51.5621 19.0027 51.6017 19.0053C51.6414 19.0079 51.681 19.0115 51.7204 19.0159C51.7599 19.0205 51.7992 19.026 51.8384 19.0325C51.8777 19.039 51.9167 19.0464 51.9556 19.0547C51.9944 19.063 52.033 19.0723 52.0714 19.0827C52.1098 19.0929 52.1479 19.104 52.1858 19.1161C52.2236 19.1282 52.2611 19.1412 52.2984 19.1552C52.3356 19.1691 52.3724 19.184 52.4089 19.1997C52.4453 19.2154 52.4814 19.232 52.5172 19.2495C52.5528 19.267 52.588 19.2854 52.6228 19.3047C52.6576 19.3239 52.6918 19.3439 52.7256 19.3648C52.7594 19.3858 52.7927 19.4075 52.8254 19.43C52.8581 19.4525 52.8903 19.4758 52.922 19.4998C52.9536 19.5239 52.9845 19.5487 53.015 19.5744C53.0454 19.6 53.0751 19.6264 53.1042 19.6534C53.1332 19.6805 53.1617 19.7083 53.1895 19.7367C53.2172 19.7652 53.2442 19.7942 53.2706 19.8239C53.2969 19.8537 53.3225 19.8841 53.3473 19.9152C53.3722 19.9462 53.3963 19.9778 53.4195 20.01C53.4428 20.0422 53.4653 20.0749 53.487 20.1081C53.5088 20.1415 53.5297 20.1753 53.5497 20.2095C53.5698 20.2438 53.589 20.2786 53.6073 20.3139C53.6256 20.3491 53.6431 20.3848 53.6598 20.4209C53.6764 20.457 53.6921 20.4934 53.7068 20.5303C53.7217 20.5672 53.7357 20.6044 53.7487 20.6419C53.7617 20.6795 53.7738 20.7173 53.785 20.7555C53.7961 20.7936 53.8063 20.832 53.8156 20.8706C53.825 20.9093 53.8334 20.9481 53.8407 20.9872C53.8481 21.0261 53.8546 21.0653 53.86 21.1047C53.8655 21.1441 53.87 21.1835 53.8736 21.2231C53.8771 21.2627 53.8797 21.3023 53.8814 21.342C53.8829 21.3817 53.8836 21.4215 53.8832 21.4613C53.8829 21.5009 53.8817 21.5406 53.8795 21.5803C53.8772 21.62 53.874 21.6596 53.8698 21.6991C53.8656 21.7386 53.8605 21.7781 53.8543 21.8173C53.8482 21.8566 53.8411 21.8957 53.8331 21.9345C53.8251 21.9735 53.8161 22.0122 53.8062 22.0506C53.7963 22.0892 53.7855 22.1274 53.7737 22.1653C53.7619 22.2032 53.7492 22.2409 53.7356 22.2783C53.7219 22.3156 53.7074 22.3526 53.692 22.3892C53.6766 22.4258 53.6603 22.462 53.6431 22.4978C53.6259 22.5336 53.6079 22.5691 53.589 22.6041C53.5701 22.639 53.5503 22.6734 53.5297 22.7073C53.5091 22.7414 53.4877 22.7749 53.4654 22.8078C53.4433 22.8407 53.4202 22.8731 53.3964 22.9048C53.3726 22.9367 53.348 22.968 53.3226 22.9986C53.2973 23.0291 53.2713 23.0591 53.2445 23.0884C53.2177 23.1178 53.1902 23.1465 53.162 23.1745C53.1338 23.2024 53.1049 23.2297 53.0754 23.2564C53.0459 23.283 53.0156 23.3088 52.9848 23.3339C52.9541 23.359 52.9227 23.3833 52.8907 23.4069C52.8588 23.4305 52.8262 23.4533 52.7931 23.4753C52.76 23.4973 52.7264 23.5184 52.6923 23.5387C52.6581 23.5592 52.6235 23.5787 52.5884 23.5973C52.5533 23.616 52.5178 23.6338 52.4818 23.6508C52.4459 23.6677 52.4096 23.6837 52.3729 23.6989C52.3362 23.714 52.2991 23.7282 52.2617 23.7416C52.2242 23.7549 52.1864 23.7673 52.1484 23.7789C52.1104 23.7904 52.0721 23.8009 52.0336 23.8106C51.995 23.8202 51.9563 23.8289 51.9173 23.8366C51.8782 23.8444 51.8391 23.8512 51.7998 23.857C51.7605 23.8629 51.7211 23.8677 51.6815 23.8716ZM51.2486 20.6687C51.2262 20.6741 51.204 20.6803 51.1822 20.6875C51.1603 20.6947 51.1388 20.7028 51.1176 20.7117C51.0965 20.7208 51.0757 20.7307 51.0554 20.7414C51.0351 20.7522 51.0153 20.7639 50.9959 20.7764C50.9766 20.7889 50.9579 20.8022 50.9397 20.8162C50.9214 20.8303 50.9039 20.8452 50.887 20.8608C50.87 20.8763 50.8538 20.8926 50.8382 20.9095C50.8227 20.9265 50.8079 20.9441 50.7939 20.9623C50.7798 20.9806 50.7666 20.9994 50.7542 21.0188C50.7418 21.0381 50.7302 21.058 50.7195 21.0783C50.7088 21.0987 50.6989 21.1195 50.69 21.1406C50.681 21.1619 50.6729 21.1834 50.6657 21.2053C50.6587 21.2272 50.6525 21.2493 50.6473 21.2717C50.642 21.2941 50.6377 21.3167 50.6345 21.3395C50.6312 21.3622 50.6288 21.3851 50.6275 21.4081C50.6261 21.431 50.6257 21.454 50.6264 21.477C50.6272 21.5067 50.6296 21.5363 50.6336 21.5656C50.6376 21.595 50.6433 21.6241 50.6506 21.6528C50.6578 21.6817 50.6666 21.7099 50.677 21.7377C50.6873 21.7655 50.6991 21.7927 50.7125 21.8192C50.7259 21.8457 50.7407 21.8714 50.7568 21.8962C50.773 21.9211 50.7905 21.9451 50.8093 21.968C50.8281 21.9909 50.8481 22.0127 50.8693 22.0334C50.8906 22.0542 50.9129 22.0737 50.9362 22.092C50.9596 22.1104 50.9839 22.1273 51.0092 22.143C51.0344 22.1585 51.0604 22.1727 51.0872 22.1855C51.114 22.1982 51.1415 22.2094 51.1695 22.2192C51.1975 22.2289 51.226 22.237 51.255 22.2436C51.2839 22.2503 51.3131 22.2553 51.3426 22.2586C51.3721 22.2619 51.4017 22.2636 51.4314 22.2638C51.4611 22.264 51.4906 22.2624 51.5201 22.2592C51.5497 22.2561 51.579 22.2514 51.6079 22.245C51.621 22.2422 51.6339 22.239 51.6467 22.2355C51.6595 22.232 51.6722 22.2282 51.6848 22.2241C51.6975 22.22 51.7101 22.2156 51.7225 22.2108C51.7349 22.2061 51.7472 22.201 51.7593 22.1956C51.7715 22.1903 51.7836 22.1847 51.7954 22.1787C51.8073 22.1728 51.8191 22.1666 51.8307 22.16C51.8423 22.1535 51.8537 22.1468 51.865 22.1397C51.8762 22.1326 51.8873 22.1253 51.8982 22.1177C51.9091 22.1099 51.9198 22.102 51.9303 22.0939C51.9408 22.0858 51.9511 22.0774 51.9612 22.0688C51.9712 22.0601 51.9811 22.0512 51.9907 22.042C52.0004 22.0329 52.0099 22.0235 52.019 22.0139C52.0282 22.0042 52.0371 21.9944 52.0457 21.9844C52.0545 21.9743 52.063 21.964 52.0712 21.9536C52.0793 21.9431 52.0873 21.9324 52.095 21.9216C52.1026 21.9107 52.11 21.8997 52.1172 21.8884C52.1242 21.8772 52.1311 21.8658 52.1376 21.8542C52.1442 21.8427 52.1505 21.8309 52.1565 21.8191C52.1625 21.8072 52.1681 21.7952 52.1736 21.783C52.1789 21.7709 52.1839 21.7586 52.1887 21.7461C52.1935 21.7337 52.198 21.7212 52.2022 21.7086C52.2063 21.696 52.2102 21.6833 52.2137 21.6705C52.2173 21.6577 52.2205 21.6447 52.2234 21.6317C52.2263 21.6188 52.2289 21.6058 52.2311 21.5927C52.2334 21.5795 52.2353 21.5664 52.2368 21.5531C52.2385 21.54 52.2398 21.5268 52.2407 21.5134C52.2417 21.5002 52.2423 21.4869 52.2426 21.4736C52.2429 21.4604 52.2429 21.4471 52.2426 21.4337C52.2422 21.4205 52.2415 21.4072 52.2404 21.3939C52.2395 21.3807 52.2382 21.3674 52.2365 21.3542C52.2349 21.3411 52.2329 21.328 52.2306 21.3148C52.2282 21.3017 52.2255 21.2887 52.2226 21.2758C52.2197 21.2629 52.2164 21.25 52.2128 21.2372C52.2092 21.2244 52.2053 21.2117 52.2011 21.1991C52.1969 21.1865 52.1924 21.174 52.1875 21.1616C52.1827 21.1492 52.1776 21.1369 52.1722 21.1247C52.1666 21.1126 52.1609 21.1006 52.155 21.0887C52.1489 21.0769 52.1426 21.0652 52.1359 21.0537C52.1293 21.0422 52.1225 21.0308 52.1153 21.0195C52.1081 21.0084 52.1006 20.9974 52.0929 20.9866C52.0852 20.9757 52.0773 20.9651 52.069 20.9547C52.0608 20.9442 52.0523 20.9339 52.0436 20.9239C52.0348 20.9139 52.0258 20.9041 52.0165 20.8945C52.0074 20.8849 51.9979 20.8756 51.9882 20.8666C51.9786 20.8574 51.9687 20.8485 51.9586 20.84C51.9485 20.8314 51.9381 20.823 51.9275 20.8148C51.9169 20.8067 51.9062 20.7989 51.8953 20.7912C51.8843 20.7837 51.8732 20.7765 51.862 20.7694C51.8507 20.7624 51.8393 20.7557 51.8276 20.7492C51.8161 20.7427 51.8043 20.7365 51.7923 20.7306C51.7804 20.7247 51.7684 20.7191 51.7562 20.7139C51.744 20.7086 51.7317 20.7036 51.7192 20.6989C51.7068 20.6942 51.6942 20.6898 51.6815 20.6858C51.6689 20.6817 51.6562 20.678 51.6432 20.6745C51.6304 20.6711 51.6175 20.668 51.6045 20.6652C51.5915 20.6623 51.5784 20.6599 51.5653 20.6578C51.5523 20.6556 51.5391 20.6537 51.5259 20.6522C51.5127 20.6507 51.4994 20.6496 51.4861 20.6488C51.4728 20.6479 51.4596 20.6474 51.4462 20.6472C51.433 20.647 51.4197 20.6471 51.4064 20.6475C51.3931 20.648 51.3799 20.6489 51.3667 20.65C51.3534 20.651 51.3401 20.6524 51.327 20.6542C51.3138 20.656 51.3006 20.6581 51.2876 20.6605C51.2745 20.663 51.2615 20.6657 51.2486 20.6687Z" fill="white"/>
<path d="M44.6283 23.9168L41.0066 23.9188C40.3155 23.919 39.5 23.9968 38.826 23.8481C36.4275 23.319 36.2203 19.4315 39.2361 19.0634C40.3808 18.9934 43.6802 18.9482 44.72 19.112C47.4103 19.5352 47.4519 23.2857 44.6283 23.9168ZM39.7996 20.6851C38.1616 20.6945 38.4113 22.1834 39.3969 22.322C39.7974 22.3782 40.2522 22.3127 40.6583 22.3121L43.9777 22.3176C44.9958 22.331 45.4964 21.4896 44.8768 20.9157C44.4339 20.5059 43.2697 20.682 42.7221 20.6821L39.7996 20.6851Z" fill="white"/>
<defs>
<linearGradient id="paint0_linear_221_55" x1="34.5" y1="36.5" x2="37.5" y2="36.5" gradientUnits="userSpaceOnUse">
<stop stop-color="#4318D1"/>
<stop offset="1" stop-color="#18D1B8"/>
</linearGradient>
<linearGradient id="paint1_linear_221_55" x1="48" y1="21.5" x2="52.5" y2="21.5" gradientUnits="userSpaceOnUse">
<stop stop-color="#4318D1"/>
<stop offset="1" stop-color="#18D1B8"/>
</linearGradient>
<linearGradient id="paint2_linear_221_55" x1="39" y1="21.5" x2="43" y2="21.5" gradientUnits="userSpaceOnUse">
<stop stop-color="#4318D1"/>
<stop offset="1" stop-color="#18D1B8"/>
</linearGradient>
</defs>
</svg>
