<svg width="80" height="80" viewBox="0 0 80 80" fill="none" xmlns="http://www.w3.org/2000/svg">
<path d="M35.5001 22.5L33.5 25L34 27L39.5 32.5L45 27L45.5 25L44 22.5L39 23L35.5001 22.5Z" fill="url(#paint0_linear_221_3)"/>
<path d="M15.9659 37.1005L15.9724 61.3507C15.9709 64.1322 15.4621 64.001 18.3871 63.9994L39.8095 63.9991C40.4021 63.9972 41.4812 63.7839 41.6892 64.5622C42.0632 65.9627 39.4592 65.5477 38.7863 65.5472L18.7192 65.5477C14.8625 65.5499 14.3955 65.3864 14.3955 61.7371L14.3969 20.0772C14.3965 17.9363 13.7191 14.7619 16.5723 14.3784C17.3328 14.3187 18.1142 14.3758 18.8771 14.3765L49.1409 14.3766C52.8026 14.3763 53.0643 15.0472 53.0607 18.5863L53.0767 34.0233C53.0801 35.493 51.8331 35.3302 51.6088 34.5599C51.4618 34.055 51.5487 31.7258 51.5488 31.0305V18.7339C51.5481 16.2192 51.9926 15.9292 49.4412 15.9344L25.6282 15.9356C22.7696 15.9355 19.907 15.9672 17.0488 15.9189C15.39 15.8908 15.9646 17.3328 15.9653 18.6864L15.9659 37.1005Z" fill="white"/>
<path d="M41.4648 31.7177C39.6834 33.5072 39.7399 34.3246 37.9827 32.5414L36.4002 30.9455C35.5512 30.0853 33.8452 28.5827 33.2415 27.6796C31.4004 24.9257 33.2094 21.5322 36.5124 21.2263C37.4991 21.1141 38.6041 21.7332 39.3424 22.3389C41.8504 20.0249 46.0446 21.6933 46.0659 25.2336C46.078 27.2408 44.9018 28.1821 43.6165 29.5L41.4648 31.7177ZM36.5124 22.7889C34.5373 23.0013 33.3624 25.0053 34.399 26.621C34.9473 27.4755 38.4468 30.8983 39.3424 31.7177C39.9877 30.9266 40.7432 30.2153 41.4648 29.4941C42.5354 28.3814 44.6185 26.7769 44.576 25.2155C44.5232 23.278 42.2168 22.0883 40.6196 23.2507C39.9838 23.7133 39.5493 24.5683 38.7279 23.8378C38.0565 23.2407 37.4671 22.735 36.5124 22.7889Z" fill="white"/>
<path d="M28.2293 24.9707C27.7243 25.0237 22.1666 24.9978 21.8435 24.9064C21.3501 24.767 21.1299 23.8421 21.9435 23.4632C22.9762 23.4329 27.3327 23.3098 28.2034 23.504C28.9963 23.6809 28.8191 24.6596 28.2293 24.9707Z" fill="white"/>
<path d="M21.9436 30.6746C21.2991 30.2802 21.1653 29.3001 22.083 29.1518C23.7217 29.1188 26.4155 29.0055 28.0068 29.1699C28.9722 29.2696 28.9639 30.5305 28.0447 30.6746C27.3869 30.7236 26.6968 30.6779 26.0349 30.6768L21.9436 30.6746Z" fill="white"/>
<path d="M51.097 47.9694C48.934 47.5969 51.6529 45.9716 51.4291 44.8607C51.2009 43.7285 49.3387 42.1216 48.8563 40.6969C48.4507 39.499 49.0523 37.7996 50.3293 37.3871C50.7196 37.3916 51.0768 37.5432 51.1796 37.9586C51.4468 39.038 49.3649 38.9135 50.7023 40.9582C51.899 42.7877 53.8996 44.4299 52.4627 46.7522C52.1495 47.2585 51.7007 47.8293 51.097 47.9694Z" fill="white"/>
<path d="M55.8662 47.9694C53.906 47.8979 55.8151 46.1299 55.9412 45.8897C56.734 44.3808 54.0082 42.278 53.5113 40.7247C53.1204 39.5024 53.7708 37.791 55.0622 37.3871C56.9082 37.4433 55.181 39.1736 55.0326 39.4554C54.439 40.5829 57.1124 42.8608 57.5397 44.3307C57.9071 45.5938 57.2597 47.591 55.8662 47.9694Z" fill="white"/>
<path d="M46.4853 47.9694C46.1245 47.9724 45.7259 47.8444 45.5606 47.4929C45.2222 46.7738 47.0529 45.8933 46.7022 44.7258C46.4193 43.7844 44.9179 42.2985 44.3676 41.2374C43.6403 39.8349 44.1298 38.1216 45.5486 37.3871C47.7095 37.4144 45.3179 39.4377 45.5367 40.0971C45.89 41.1618 47.357 42.5144 47.9239 43.6107C48.7065 45.124 48.0011 47.1936 46.4853 47.9694Z" fill="white"/>
<path d="M38.3635 40.3828C37.698 40.4276 36.9993 40.3847 36.3307 40.3844L25.6965 40.382C24.9833 40.3826 22.404 40.5292 21.8608 40.3056C21.2133 40.0392 21.2354 39.1253 22.0829 38.8673L32.6186 38.8672C33.3447 38.867 38.1299 38.792 38.473 38.9258C39.1949 39.2069 39.0008 40.1481 38.3635 40.3828Z" fill="white"/>
<path d="M38.3635 45.893C37.7216 45.9482 37.0315 45.896 36.3852 45.895L25.4729 45.8922C24.4713 45.8924 23.4593 45.9307 22.4594 45.9041C21.2757 45.8727 20.9323 44.6674 22.0829 44.3266L36.6801 44.3246C37.3062 44.3232 39.2857 44.0558 38.9237 45.2554C38.8313 45.5608 38.6443 45.7522 38.3635 45.893Z" fill="white"/>
<path d="M34.5301 51.5986C33.8654 51.6378 33.1778 51.6011 32.5104 51.6005L24.3754 51.5967C23.7332 51.5967 22.3237 51.7866 21.7654 51.4441C21.1431 51.0624 21.4424 50.1811 22.0831 50.0381L33.0401 50.0384C33.6484 50.0381 34.8117 49.8172 35.1049 50.5345C35.2979 51.0063 34.9624 51.4353 34.5301 51.5986Z" fill="white"/>
<path d="M60.5866 61.4249C59.3554 64.5882 56.7355 65.5689 53.6534 65.55L50.8641 65.5449C49.6807 65.5455 48.0345 65.6738 46.9073 65.5004C44.0659 65.0633 41.8595 62.9433 41.1707 60.1577C40.9227 59.1544 40.9893 58.0752 40.9893 57.0483L40.9966 53.8493C40.9968 52.8349 40.5246 50.549 41.7401 50.2765L58.2173 50.2757C59.1984 50.2746 61.0113 49.866 61.1584 51.0571C67.7591 52.1099 66.3048 60.5689 60.8799 60.5049C60.8073 60.8224 60.7077 61.1227 60.5866 61.4249ZM42.5293 51.8091C42.5004 53.503 42.3279 58.245 42.643 59.6902C43.2118 62.2974 45.4043 64.0135 48.0696 64.0599C48.7726 64.0721 49.4885 63.9997 50.1962 63.9977L53.0779 64.0015C55.146 64.0074 56.481 64.0593 58.0826 62.496C59.8573 60.6547 59.6477 58.9221 59.6476 56.5554L59.6462 51.8091H42.5293ZM61.1584 52.5493V58.9386C61.943 58.8194 62.5277 58.5816 63.1018 58.0221C65.0665 55.9093 63.8807 53.1682 61.1584 52.5493Z" fill="white"/>
<path d="M34.53 57.0836L25.4383 57.0854C24.8827 57.086 22.3946 57.16 21.9941 57.0499C21.213 56.8349 21.3114 55.836 21.9436 55.5104C22.6599 55.4807 23.3891 55.5083 24.1069 55.5086L31.7172 55.514C32.3453 55.5113 33.99 55.4079 34.5316 55.5755C35.3917 55.8418 35.233 56.7671 34.53 57.0836Z" fill="white"/>
<defs>
<linearGradient id="paint0_linear_221_3" x1="32.6273" y1="27.5262" x2="41.0037" y2="27.5262" gradientUnits="userSpaceOnUse">
<stop stop-color="#4318D1"/>
<stop offset="1" stop-color="#18D1B8"/>
</linearGradient>
</defs>
</svg>
