<svg width="80" height="80" viewBox="0 0 80 80" fill="none" xmlns="http://www.w3.org/2000/svg">
<path d="M36 12V16H40V12H36Z" fill="url(#paint0_linear_221_62)"/>
<path d="M26.0001 63.5L26 68H49.9083V63.5H26.0001Z" fill="url(#paint1_linear_221_62)"/>
<path d="M37.1642 17.4154C33.4853 16.362 33.9887 11.3298 37.7145 10.871C41.4766 10.4712 42.8597 16.1107 38.7983 17.4154C38.7798 18.0288 38.7978 18.6482 38.7983 19.2622C42.6223 19.2579 45.7473 18.9978 48.7021 22.1156C50.5258 24.04 50.8555 25.2006 50.7981 27.632C53.2967 27.6919 56.0073 27.2155 58.1028 28.9324C60.4871 30.8859 60.4857 33.0437 60.4863 35.8019L60.4872 43.8405C60.4876 45.207 60.5607 46.5992 60.2632 47.9423C59.2954 52.313 55.303 56.1152 50.7981 56.5218C50.7866 56.7031 50.7926 56.8858 50.7938 57.0674L50.7991 63.8623C50.8004 68.701 50.9721 69.0622 46.3728 69.063L42.2729 69.0616L29.2105 69.0641C26.7793 69.0656 25.0754 69.0056 25.1398 66.0125C25.1898 63.6902 25.1556 61.3618 25.1554 59.0386L25.1551 40.6041C25.1604 35.4903 24.8233 32.0504 20.8488 28.1279C20.2637 27.5504 18.8569 26.6046 19.7724 25.6997C20.1969 25.2803 21.4888 25.4649 22.0296 25.4648L25.1548 25.4662C27.9654 19.5153 30.8394 19.2547 37.1642 19.2622V17.4154ZM37.8793 12.5124C37.8517 12.5138 37.8241 12.516 37.7965 12.5188C37.7691 12.5216 37.7416 12.5251 37.7142 12.5292C37.6868 12.5334 37.6596 12.5382 37.6324 12.5437C37.6053 12.5492 37.5783 12.5553 37.5515 12.5621C37.5247 12.5689 37.498 12.5764 37.4715 12.5845C37.445 12.5926 37.4188 12.6014 37.3928 12.6108C37.3667 12.6202 37.3409 12.6303 37.3154 12.641C37.2899 12.6516 37.2647 12.6629 37.2397 12.6749C37.2147 12.6868 37.19 12.6993 37.1656 12.7124C37.1413 12.7255 37.1172 12.7393 37.0935 12.7536C37.0698 12.7679 37.0465 12.7828 37.0235 12.7982C37.0006 12.8137 36.978 12.8297 36.9559 12.8462C36.9337 12.8628 36.9119 12.8799 36.8906 12.8975C36.8692 12.9152 36.8483 12.9333 36.8278 12.9519C36.8074 12.9706 36.7874 12.9898 36.7678 13.0094C36.7483 13.029 36.7293 13.0491 36.7108 13.0697C36.6922 13.0903 36.6742 13.1113 36.6567 13.1327C36.6392 13.1542 36.6223 13.1761 36.606 13.1983C36.5895 13.2206 36.5736 13.2433 36.5583 13.2664C36.543 13.2894 36.5283 13.3129 36.5141 13.3367C36.4999 13.3604 36.4864 13.3846 36.4733 13.409C36.4604 13.4335 36.4481 13.4582 36.4363 13.4833C36.4245 13.5084 36.4134 13.5337 36.4029 13.5593C36.3924 13.5849 36.3825 13.6107 36.3732 13.6368C36.364 13.6629 36.3555 13.6892 36.3474 13.7158C36.3395 13.7423 36.3322 13.769 36.3256 13.7958C36.3189 13.8227 36.3129 13.8497 36.3076 13.8769C36.3023 13.9041 36.2977 13.9313 36.2937 13.9587C36.2897 13.9861 36.2864 14.0136 36.2837 14.0412C36.2811 14.0687 36.2792 14.0963 36.2779 14.124C36.2767 14.1516 36.276 14.1793 36.276 14.207C36.2762 14.2347 36.2769 14.2623 36.2784 14.29C36.2798 14.3176 36.282 14.3452 36.2848 14.3728C36.2876 14.4003 36.291 14.4278 36.2951 14.4551C36.2993 14.4825 36.3041 14.5097 36.3096 14.5369C36.315 14.564 36.3212 14.591 36.3281 14.6178C36.3348 14.6447 36.3423 14.6713 36.3504 14.6978C36.3585 14.7242 36.3673 14.7505 36.3766 14.7765C36.386 14.8026 36.3961 14.8283 36.4068 14.8539C36.4174 14.8794 36.4287 14.9047 36.4407 14.9297C36.4526 14.9547 36.4651 14.9794 36.4782 15.0037C36.4913 15.0281 36.505 15.0522 36.5193 15.0759C36.5336 15.0996 36.5485 15.1229 36.5639 15.1459C36.5793 15.1688 36.5953 15.1914 36.6119 15.2136C36.6284 15.2358 36.6455 15.2576 36.6631 15.2789C36.6808 15.3003 36.699 15.3212 36.7176 15.3416C36.7363 15.3621 36.7554 15.3821 36.775 15.4016C36.7946 15.4211 36.8147 15.4401 36.8353 15.4587C36.8559 15.4772 36.8769 15.4952 36.8984 15.5127C36.9198 15.5302 36.9416 15.5472 36.9638 15.5636C36.9861 15.58 37.0088 15.5959 37.0319 15.6112C37.0549 15.6266 37.0784 15.6413 37.1022 15.6555C37.126 15.6696 37.1501 15.6832 37.1745 15.6962C37.199 15.7092 37.2237 15.7215 37.2487 15.7333C37.2738 15.745 37.2992 15.7562 37.3248 15.7667C37.3504 15.7772 37.3762 15.7871 37.4023 15.7964C37.4284 15.8056 37.4547 15.8143 37.4812 15.8223C37.5077 15.8302 37.5344 15.8375 37.5613 15.8442C37.5882 15.8508 37.6152 15.8568 37.6424 15.8621C37.6695 15.8674 37.6968 15.8721 37.7242 15.876C37.7516 15.8801 37.779 15.8834 37.8065 15.886C37.8341 15.8886 37.8617 15.8906 37.8893 15.892C37.917 15.8932 37.9447 15.8938 37.9724 15.8937C38.0001 15.8937 38.0278 15.893 38.0554 15.8915C38.0831 15.89 38.1107 15.888 38.1382 15.8852C38.1658 15.8824 38.1932 15.8789 38.2206 15.8748C38.248 15.8706 38.2753 15.8658 38.3023 15.8604C38.3295 15.8549 38.3565 15.8487 38.3834 15.842C38.4103 15.8352 38.4369 15.8278 38.4634 15.8196C38.4898 15.8115 38.5161 15.8028 38.5423 15.7934C38.5683 15.7839 38.5941 15.7739 38.6196 15.7633C38.6452 15.7525 38.6705 15.7412 38.6955 15.7294C38.7205 15.7175 38.7452 15.705 38.7695 15.6919C38.7939 15.6787 38.818 15.665 38.8417 15.6506C38.8654 15.6364 38.8888 15.6215 38.9118 15.6061C38.9348 15.5906 38.9573 15.5746 38.9795 15.558C39.0018 15.5415 39.0236 15.5244 39.0449 15.5068C39.0663 15.4891 39.0872 15.471 39.1076 15.4523C39.1281 15.4337 39.1481 15.4145 39.1677 15.3949C39.1872 15.3753 39.2062 15.3552 39.2247 15.3346C39.2433 15.314 39.2613 15.293 39.2788 15.2715C39.2963 15.2501 39.3132 15.2282 39.3297 15.2059C39.3461 15.1836 39.362 15.1609 39.3773 15.1379C39.3926 15.1148 39.4074 15.0914 39.4217 15.0676C39.4359 15.0438 39.4494 15.0196 39.4623 14.9952C39.4753 14.9707 39.4877 14.946 39.4995 14.9209C39.5112 14.8958 39.5224 14.8705 39.5329 14.8448C39.5434 14.8192 39.5533 14.7934 39.5626 14.7673C39.5719 14.7412 39.5804 14.7148 39.5884 14.6883C39.5964 14.6618 39.6037 14.6351 39.6104 14.6082C39.6171 14.5813 39.623 14.5543 39.6284 14.5271C39.6337 14.4999 39.6383 14.4726 39.6423 14.4452C39.6462 14.4178 39.6495 14.3903 39.6523 14.3628C39.6549 14.3352 39.6568 14.3076 39.658 14.2799C39.6593 14.2522 39.6599 14.2246 39.6599 14.1969C39.6598 14.1692 39.659 14.1415 39.6576 14.1138C39.6561 14.0862 39.654 14.0586 39.6512 14.031C39.6483 14.0035 39.6449 13.976 39.6408 13.9486C39.6367 13.9212 39.6318 13.894 39.6263 13.8668C39.6208 13.8397 39.6147 13.8127 39.6079 13.7858C39.6011 13.759 39.5937 13.7323 39.5856 13.7059C39.5774 13.6794 39.5686 13.6531 39.5592 13.6271C39.5498 13.601 39.5397 13.5752 39.529 13.5497C39.5184 13.5241 39.5071 13.4988 39.4951 13.4738C39.4832 13.4488 39.4707 13.4241 39.4576 13.3998C39.4445 13.3754 39.4308 13.3513 39.4164 13.3276C39.4021 13.3039 39.3872 13.2806 39.3717 13.2576C39.3563 13.2346 39.3403 13.212 39.3238 13.1898C39.3072 13.1676 39.2901 13.1459 39.2725 13.1245C39.2548 13.1032 39.2366 13.0823 39.218 13.0618C39.1994 13.0413 39.1802 13.0213 39.1605 13.0018C39.1408 12.9823 39.1207 12.9633 39.1002 12.9447C39.0796 12.9262 39.0586 12.9082 39.0371 12.8907C39.0157 12.8732 38.9938 12.8562 38.9715 12.8398C38.9492 12.8234 38.9265 12.8075 38.9034 12.7922C38.8804 12.7769 38.857 12.7621 38.8331 12.748C38.8093 12.7338 38.7851 12.7202 38.7606 12.7073C38.7363 12.6943 38.7115 12.6819 38.6864 12.6702C38.6613 12.6584 38.636 12.6473 38.6104 12.6368C38.5847 12.6262 38.5589 12.6164 38.5327 12.6071C38.5067 12.5979 38.4804 12.5893 38.4538 12.5813C38.4273 12.5734 38.4006 12.5661 38.3737 12.5594C38.3468 12.5528 38.3198 12.5468 38.2926 12.5415C38.2655 12.5362 38.2381 12.5315 38.2106 12.5276C38.1833 12.5236 38.1558 12.5203 38.1283 12.5177C38.1007 12.515 38.0731 12.5131 38.0454 12.5118C38.0177 12.5106 37.99 12.51 37.9624 12.5101C37.9347 12.5102 37.907 12.5109 37.8793 12.5124ZM34.05 20.9099C30.9323 21.008 28.1616 22.5064 26.9831 25.4662C28.6409 25.4904 30.302 25.4664 31.9603 25.4662H41.8824L46.6288 25.4651C47.4222 25.4645 48.2277 25.4226 49.019 25.4662C46.5121 20.7451 43.5684 20.9077 38.9518 20.9082L34.05 20.9099ZM34.4624 27.1202H22.2078L22.2352 27.1548C23.487 28.7131 24.2875 29.4735 25.2652 31.4212C25.5806 32.0618 28.5622 31.7378 29.4407 31.7381L37.1642 31.7405V27.1202H34.4624ZM38.9395 27.1202L38.8301 27.1509C38.7225 27.527 38.7977 31.0627 38.7983 31.7405H49.019L49.1256 31.7211C49.203 31.5813 49.1543 27.6317 49.1545 27.1202H38.9395ZM50.7981 29.2449L50.7974 52.0765C50.7974 53.0119 50.7681 53.958 50.7981 54.8924C52.9202 54.6074 54.5415 53.6329 56.104 52.211C58.7888 49.25 58.8462 47.4449 58.8474 43.7344L58.8473 35.8055C58.8452 31.346 57.9155 29.2387 53.1063 29.2424L50.7981 29.2449ZM28.966 33.3778H26.0351C26.6878 35.5009 26.8109 37.3184 26.8105 39.55L26.809 50.6807C28.9504 51.0812 30.206 51.4906 32.469 51.4202C33.0514 51.402 33.6356 51.3347 34.2182 51.3385C35.1976 51.1735 36.1859 51.0703 37.1642 50.8989V33.3778H28.966ZM38.7983 33.3778V50.5654C42.2713 49.77 45.2064 49.8862 48.6276 50.5654L49.1545 50.6807V33.3778H38.7983ZM42.5261 51.6221C41.2713 51.7691 40.0357 51.9505 38.7983 52.211C38.8012 52.8143 38.9517 54.7125 38.5748 55.1031C38.3739 55.3114 37.5165 55.2665 37.319 55.0597C37.0614 54.7898 37.1475 52.9763 37.1642 52.5326C34.2356 53.0901 29.5655 53.5317 26.809 52.211L26.8077 59.4313C26.8074 60.6264 26.7612 61.8371 26.809 63.0296H29.8937H49.1545V52.5326C47.5418 51.6766 44.3545 51.5343 42.5261 51.6221ZM39.5629 64.6527H26.809C26.8113 65.4637 26.535 66.88 27.2082 67.3919C30.2264 67.4295 33.2501 67.3917 36.2689 67.3919L46.9468 67.3945C47.6849 67.3967 48.674 67.6159 49.1545 66.9262V64.6527H39.5629Z" fill="white"/>
<defs>
<linearGradient id="paint0_linear_221_62" x1="35.76" y1="13.6" x2="38.88" y2="13.6" gradientUnits="userSpaceOnUse">
<stop stop-color="#4318D1"/>
<stop offset="1" stop-color="#18D1B8"/>
</linearGradient>
<linearGradient id="paint1_linear_221_62" x1="23.5" y1="65" x2="43" y2="65" gradientUnits="userSpaceOnUse">
<stop stop-color="#4318D1"/>
<stop offset="1" stop-color="#18D1B8"/>
</linearGradient>
</defs>
</svg>
