<svg width="80" height="80" viewBox="0 0 80 80" fill="none" xmlns="http://www.w3.org/2000/svg">
<path d="M31 42V47H46V42H31Z" fill="url(#paint0_linear_200_91)"/>
<path d="M37 12V16H41V12H37Z" fill="url(#paint1_linear_200_91)"/>
<path d="M36.5033 15.2616C36.5136 13.8594 36.0153 11.3338 37.6749 11C42.0271 10.7674 41.2742 11.6144 41.2845 15.2616L51.4661 19.9045C53.0918 20.6472 53.861 20.365 53.2634 22.2513L56.3104 22.2494C57.3895 22.2486 58.5595 22.0173 59.4431 22.7655C59.9316 23.1793 61.9207 25.2698 62.1865 25.7621C62.9393 27.1558 62.1862 28.2775 61.6686 29.5743L58.1696 38.4372C57.8609 39.2387 57.5894 40.12 57.178 40.8721C55.8877 43.2316 52.2752 42.1312 52.707 39.4466C52.8421 38.6071 53.4093 37.4281 53.7331 36.6218L56.8475 28.9162C56.9765 28.6002 57.4996 27.7656 57.3089 27.453C56.8586 27.2448 52.7738 27.3443 51.9936 27.345C51.7855 28.1741 51.6101 29.0123 51.4081 29.8431L49.2805 38.7043C48.902 40.3107 48.9737 41.4643 47.215 42.0567V46.8446C49.3489 48.726 49.3042 49.1542 49.8733 51.8701L51.8574 61.1372C52.1251 62.4008 53.226 66.5268 53.0469 67.4474C52.6754 69.3545 50.4845 69.0399 49.0427 69.0385L29.4461 69.0376C28.5637 69.039 27.1159 69.1415 26.313 68.9581C23.9171 68.4107 24.7725 66.0349 25.123 64.4766L27.4725 53.3869C27.9992 50.8123 27.9331 48.3641 30.4736 46.8446V42.0567C29.0409 41.8324 28.9442 40.7721 28.6727 39.5873L27.9381 36.4232C27.7399 35.5469 27.6782 34.5797 27.0738 33.8691C25.8198 32.3949 17.5 22 17.5 21C19.5 21 20.7321 20.9994 21.5 21C22.2627 21.0005 23.8938 21.0412 24.5 21C24.8999 20.4153 25.5716 20.0362 26.1913 19.7675L34.3253 16.1426C35.0282 15.8377 35.7629 15.4547 36.5033 15.2616ZM37.991 12.4765C37.9885 13.3291 37.975 14.1833 37.991 15.0357H39.7834V12.4765H37.991ZM37.4436 16.5123C36.6692 16.6279 35.6109 17.2134 34.8856 17.5366L30.9211 19.3045C29.881 19.7648 28.7037 20.1908 27.7079 20.7155H40.076L46.5144 20.7169C47.4885 20.717 48.7189 20.7798 49.6672 20.7155C48.7433 20.3428 47.8421 19.904 46.9357 19.4904L42.3842 17.4368C39.7717 16.2787 40.4352 16.4878 37.4436 16.5123ZM26.22 22.2513C27.1087 26.4123 28.0923 30.5579 29.0595 34.7011C29.4998 36.5874 29.8351 38.7644 30.4736 40.5833H33.1581C33.0429 39.5286 33.0104 38.4561 32.9321 37.397L32.0725 24.9046C32.011 24.0331 31.8885 23.1238 31.9465 22.2513H26.22ZM45.8883 22.2513L44.7694 38.3775C44.7154 39.1092 44.6337 39.8496 44.6389 40.5833C47.732 40.5901 47.1967 40.8868 47.886 37.9975L50.3305 27.8362C50.7888 25.9752 51.2135 24.0957 51.7338 22.2513L47.7828 22.2488C47.1639 22.2485 46.5035 22.1997 45.8883 22.2513ZM33.391 22.2513C33.3875 23.6037 33.6032 24.9919 33.6917 26.3432L34.5046 38.5034C34.5548 39.1895 34.6422 39.896 34.5999 40.5833H43.0796C43.1237 40.201 43.1407 39.8261 43.1488 39.4419C43.2933 38.4361 43.3236 37.4 43.3931 36.3857L44.0426 27.0711C44.1634 25.4661 44.3157 23.8618 44.3216 22.2513H33.391ZM21.8994 22.2513H19.8064C21.1196 24.6162 24.0577 27.8054 25.7627 30.0224L26.7817 31.2257L25.3701 25.2428C25.1352 24.2495 24.8593 23.2535 24.6678 22.2513H21.8994ZM52.855 23.7669C52.6906 24.4578 52.5219 25.1479 52.3803 25.8438L55.6614 25.8423C57.1667 25.8426 58.2947 25.5937 59.0123 27.345C58.8439 28.3539 58.1793 29.6652 57.7842 30.6445L55.8498 35.4448C55.5264 36.2442 54.2735 38.9592 54.1379 39.6612C53.988 40.4369 54.8919 40.9388 55.528 40.5833C56.0586 40.0406 56.2589 39.1106 56.5363 38.4239L60.3802 28.7096C60.697 27.8854 61.2984 27.0956 60.6848 26.2723C60.0112 25.3685 59.069 24.6368 58.3398 23.7669H52.855ZM31.9465 42.0567V46.4644H45.7299V42.0567H31.9465ZM45.343 47.9464H31.4704C29.8874 49.1067 29.7638 49.4653 29.4063 51.2748L27.0135 62.9181C26.835 63.7559 26.6458 64.5926 26.4514 65.4268C26.2759 66.1792 25.8339 66.9587 26.5448 67.5426C28.6089 67.5947 30.6873 67.5422 32.753 67.5426L34.1693 51.5012C34.2197 50.9143 34.1033 48.8243 35.099 48.9561C36.5022 49.142 35.5254 52.9623 35.4286 54.1195L34.4092 65.8224C34.3002 66.3926 34.2392 66.9674 34.1646 67.5426H43.2538C43.2808 65.9969 43.0809 64.4196 42.9676 62.877L42.235 53.4806C42.1768 52.7131 41.7347 49.5189 42.1418 49.1017C42.4095 48.8276 42.9373 48.863 43.184 49.1465C43.5571 49.5755 43.6216 52.4112 43.6768 53.0506L44.6318 65.3448C44.6854 66.0277 44.7991 66.7511 44.729 67.4337L44.7168 67.5426L49.2338 67.5444C50.0749 67.5451 51.1173 67.8329 51.7338 67.135C51.176 65.2203 50.8314 63.2468 50.4134 61.2978L48.3173 51.6608C47.8909 49.6264 47.879 49.3355 46.1798 47.9464C45.9025 47.9389 45.6193 47.9202 45.343 47.9464Z" fill="currentColor"/>
<path d="M39.7835 50.3464C39.3121 50.3761 38.216 50.4347 37.8218 50.2358C37.2021 49.9233 37.3768 49.0704 37.9911 48.8895C38.609 48.8608 40.7814 48.6499 40.2942 49.8814C40.1956 50.1307 40.023 50.2454 39.7835 50.3464Z" fill="currentColor"/>
<defs>
<linearGradient id="paint0_linear_200_91" x1="33.3438" y1="44.5" x2="44.125" y2="44.5" gradientUnits="userSpaceOnUse">
<stop stop-color="#4318D1"/>
<stop offset="1" stop-color="#18D1B8"/>
</linearGradient>
<linearGradient id="paint1_linear_200_91" x1="38" y1="14" x2="39.5" y2="14" gradientUnits="userSpaceOnUse">
<stop stop-color="#4318D1"/>
<stop offset="1" stop-color="#18D1B8"/>
</linearGradient>
</defs>
</svg>
