<svg width="80" height="80" viewBox="0 0 80 80" fill="none" xmlns="http://www.w3.org/2000/svg">
<path d="M44.0002 45.5L40.4135 48.0967L39.5 50.5L39.5 53L40 54L41 55.5L43.5 56L47.5 54L49.5002 50.5L49.5002 46.5L47.5002 45.0001L44.0002 45.5Z" fill="url(#paint0_linear_221_34)"/>
<path d="M54.2313 61.0416C51.689 65.4011 48.6541 65.0687 44.4037 65.0684L28.8991 65.0678C27.6656 65.0681 26.1877 65.1724 24.9854 65.0051C21.7194 64.5507 19.0539 61.8176 18.5701 58.5655C18.4417 57.7024 18.4739 56.8133 18.4744 55.9429L18.4741 20.6995C18.4742 18.1423 18.2716 15.3873 21.7378 14.8771C22.6397 14.8165 23.5674 14.8748 24.472 14.8756L56.7026 14.8734C59.4516 14.8707 61.4877 15.879 61.5057 19.0948L61.5054 22.2811C61.5007 24.8014 61.3232 24.3259 58.9286 24.3249L55.0663 24.3219L55.0655 54.452C55.0655 56.7205 55.3255 58.9611 54.2313 61.0416ZM57.1682 16.3609C55.071 16.7571 55.0591 18.4714 55.0613 20.1028L55.0663 22.8448H57.9713H60.028L60.0313 20.3077C60.0344 18.4266 59.9319 16.0338 57.1682 16.3609ZM22.0357 16.3609C19.385 16.8155 19.9553 19.4457 19.9571 21.4385L19.9564 55.7846C19.9569 56.7585 19.9302 57.7573 20.1253 58.7165C20.6184 61.1389 22.8145 63.2107 25.2835 63.5024C26.4286 63.6377 27.6903 63.549 28.851 63.5481L43.8657 63.547C46.3073 63.5474 49.0404 63.9497 51.1144 62.3714C53.8832 60.1722 53.5758 57.7663 53.5735 54.6302L53.5729 21.3123C53.5694 19.232 53.2789 18.1812 54.4462 16.3609H32.8278C29.2315 16.3609 25.6315 16.3247 22.0357 16.3609Z" fill="white"/>
<path d="M36.4514 24.322C36.0219 24.3568 35.5692 24.3259 35.1371 24.3252L29.4668 24.3201C28.8955 24.3229 27.0195 24.5923 26.7977 23.8612C26.6528 23.383 26.8669 22.9898 27.336 22.8449H33.5821C34.1198 22.845 36.0725 22.7688 36.4666 22.8953C37.287 23.1587 37.1288 24.0278 36.4514 24.322Z" fill="white"/>
<path d="M45.9499 30.3809C45.3796 30.4257 44.7722 30.3844 44.1986 30.3832L30.8051 30.3802C30.2612 30.3802 27.6178 30.4493 27.3037 30.3473C26.5286 30.0959 26.6759 29.2045 27.336 28.9377C28.7272 28.8896 30.1382 28.9374 31.5313 28.9375L44.1055 28.9383C44.5555 28.9382 45.2625 28.8674 45.6791 28.9342C46.4457 29.0572 46.6132 29.9535 45.9499 30.3809Z" fill="white"/>
<path d="M30.1279 36.3736C29.444 36.3763 27.4823 36.5145 27.0282 36.1709C26.7103 35.93 26.6965 35.3867 26.9641 35.1027C27.2775 34.77 27.9135 34.85 28.3319 34.8498C29.2978 34.8528 30.2766 34.8053 31.2407 34.8498C32.4178 35.9739 31.2119 36.3905 30.1279 36.3736Z" fill="white"/>
<path d="M45.5596 36.3735L36.0875 36.3784C35.6865 36.3795 35.2695 36.4023 34.8707 36.3671C33.9144 36.2829 33.6784 34.9539 35.0159 34.8498C37.2203 34.7885 39.4476 34.8494 41.6538 34.8526L44.1483 34.8454C44.669 34.8426 45.6798 34.6832 46.118 35.0308C46.7573 35.5377 46.2461 36.3345 45.5596 36.3735Z" fill="white"/>
<path d="M38.9645 42.2547L28.8582 42.2569C28.3936 42.2577 27.4577 42.405 27.0731 42.0823C26.4408 41.5515 26.7786 40.8131 27.7034 40.7631C28.2904 40.7322 28.8941 40.7617 29.483 40.7616L36.6165 40.762C37.1326 40.7622 39.1257 40.6166 39.5129 40.9446C40.1257 41.4636 39.6578 42.2304 38.9645 42.2547Z" fill="white"/>
<path d="M40.9076 56.3173C39.5107 55.489 38.7423 54.0609 38.5806 52.4539C38.1545 48.217 41.8826 44.3656 46.0458 43.9876C52.4119 43.4709 52.1817 53.9953 45.5594 56.3173C46.1292 56.3261 52.4127 55.6786 51.122 57.5007C50.7643 58.0057 49.8447 57.864 49.3112 57.8642L25.3847 57.8633C24.7889 57.8631 23.3368 58.0377 22.869 57.6653C21.9333 56.3157 23.8593 56.4265 24.509 56.4276L26.977 56.4316C25.9979 55.4869 23.9413 51.5067 26.3455 51.4191C28.8972 51.326 32.2219 51.3106 34.7638 51.4347C36.4352 51.5164 35.3883 54.3309 34.918 55.1084C34.6669 55.5236 34.3234 55.869 34.1246 56.3173H40.9076ZM46.0458 45.5C42.0341 45.5 38.9362 50.3503 40.4557 53.8541L40.9076 52.8872C42.3206 50.2569 42.6129 50.479 45.0141 49.38C46.4535 48.7212 47.5369 47.227 47.5338 45.6234C47.0869 45.4955 47.0939 45.5 46.0458 45.5ZM48.8254 47.1212C48.1288 48.8621 47.2547 50.0766 45.4363 50.8536C42.8291 51.9678 42.7882 52.3183 41.554 55.1167C41.7352 55.1605 41.9106 55.1911 42.096 55.2112C45.4953 55.6184 48.7458 53.1335 49.1644 49.705C49.2403 49.0822 49.3094 47.5856 48.8254 47.1212ZM26.8224 52.8872C27.0434 55.9273 30.8357 57.3354 33.0052 55.1167C33.6329 54.4694 34.001 53.7874 34.1246 52.8872H26.8224Z" fill="white"/>
<defs>
<linearGradient id="paint0_linear_221_34" x1="41.3793" y1="50.4962" x2="45.1913" y2="50.4755" gradientUnits="userSpaceOnUse">
<stop stop-color="#4318D1"/>
<stop offset="1" stop-color="#18D1B8"/>
</linearGradient>
</defs>
</svg>
