<svg width="80" height="80" viewBox="0 0 80 80" fill="none" xmlns="http://www.w3.org/2000/svg">
<path d="M39.9143 37.7214C39.3379 37.71 38.9332 37.5569 38.8296 36.9325C38.6715 35.9795 38.5487 34.6623 39.7247 34.5C41.1112 34.6166 41.0191 37.4045 39.9143 37.7214Z" fill="currentColor"/>
<path d="M39.9143 37.7214C39.3379 37.71 38.9332 37.5569 38.8296 36.9325C38.6715 35.9795 38.5487 34.6623 39.7247 34.5C41.1112 34.6166 41.0191 37.4045 39.9143 37.7214Z" fill="url(#paint0_linear_200_84)"/>
<path d="M39.8701 47.5C39.3006 47.4911 38.9007 47.3723 38.7984 46.8878C38.6421 46.1482 38.5208 45.126 39.6829 45C41.0528 45.0905 40.9618 47.2541 39.8701 47.5Z" fill="currentColor"/>
<path d="M39.8701 47.5C39.3006 47.4911 38.9007 47.3723 38.7984 46.8878C38.6421 46.1482 38.5208 45.126 39.6829 45C41.0528 45.0905 40.9618 47.2541 39.8701 47.5Z" fill="url(#paint1_linear_200_84)"/>
<path d="M25 31L26 33L29.5 36H48V31H25Z" fill="url(#paint2_linear_200_84)"/>
<path d="M31.5765 29.2811C31.3249 28.6759 30.9152 28.1275 30.5635 27.5769L29.0674 25.2097C27.0949 22.0783 25.1076 18.9545 23.1819 15.7942C22.7432 15.0741 20.9362 12.8206 21.2101 11.9929C21.6958 10.5248 24.3537 12.1174 25.1885 12.3896C28.4308 13.4471 30.7454 10.1469 35.2374 11.7493C38.7887 13.016 38.6793 13.0746 42.2354 11.753C45.1041 10.6869 46.4763 11.5025 48.9923 12.3223C50.0949 12.6815 52.0566 12.7481 53.0841 12.06C53.4629 11.8064 53.6426 11.3946 54.0602 11.1832C54.3024 11.1524 54.4713 11.1407 54.6973 11.2431C55.8208 11.7517 54.8791 12.8429 54.4847 13.4873L47.8279 24.3822C46.8396 25.9969 45.7576 27.5894 44.9048 29.2811C46.9832 29.2784 48.9185 29.1089 49.0719 31.7628L51.8258 31.7597C55.0397 31.7581 57.9113 32.4181 58.7385 36.0589C59.7624 40.5652 55.7938 50.8444 53.5146 54.4237C54.6571 56.6961 56.0949 60.2511 55.5655 62.6914C54.9118 65.705 52.4554 68.123 49.3662 68.4902C48.2837 68.6187 47.1416 68.5437 46.0512 68.5436L29.3079 68.5458C26.1485 68.545 24.0038 68.0681 22.1082 65.1348C19.8669 61.4919 21.4205 58.8633 22.8315 55.3469L24.8746 50.2628C26.1224 47.0866 27.3516 43.902 28.6749 40.7559C29.5926 38.5744 29.7179 38.7939 29.7163 36.3883C29.0749 36.2459 25.1718 32.3958 24.6715 31.5867C24.1449 30.7353 24.4076 29.5286 25.4612 29.3301C26.1291 29.2045 26.8987 29.2794 27.5818 29.2794L31.5765 29.2811ZM44.9048 13.0614C41.8035 13.0054 40.4512 15.5206 36.1149 13.9713C32.6283 12.7256 32.6655 12.6938 29.1587 13.9451C27.5413 14.5222 25.6265 14.4198 24.0363 13.8251C24.5296 14.7821 26.5243 18.0794 27.2591 18.8261C28.8296 18.7012 29.5143 18.1884 30.908 17.9037C34.9177 17.267 35.5432 19.0064 38.4237 19.1534C41.5033 19.3106 42.7494 17.0505 46.7176 17.9469C47.5721 18.14 48.3365 18.5558 49.1624 18.8261C50.0815 17.3133 50.9587 15.7498 51.9699 14.297C50.9774 14.3171 50.0221 14.3869 49.043 14.1522C47.583 13.8022 46.494 12.9384 44.9048 13.0614ZM44.3043 19.5351C43.1758 19.6286 42.4396 20.0709 41.4143 20.4528C36.906 22.132 34.7501 18.7134 30.8891 19.7062C29.9007 19.9603 29.2377 20.3237 28.1679 20.4834L30.5043 24.2175C31.2015 25.3081 31.9305 26.3862 32.5863 27.5022C32.9627 28.0906 33.3723 28.6742 33.7168 29.2811H42.7993C43.1663 28.6084 43.588 27.958 43.9826 27.3005L46.2358 23.5806C46.8951 22.5123 47.5724 21.4551 48.1937 20.3636C47.0291 19.8301 45.6182 19.2137 44.3043 19.5351ZM29.2224 31.02C28.4076 31.0219 27.263 31.0908 26.4851 31.02C26.9357 31.5655 27.4937 32.0294 27.9872 32.5369C30.0407 34.6475 29.2946 34.7342 32.0985 34.7347L44.668 34.733C47.2682 34.7523 47.5232 34.6045 47.3152 31.7497C47.2579 30.9623 46.8094 31.0501 46.171 31.0311C44.2015 30.9723 42.2176 31.0191 40.2468 31.0191L29.2224 31.02ZM49.6196 33.5011H49.0719C48.9418 35.0436 48.2946 35.7758 46.9423 36.3883C46.9337 38.1806 46.8751 38.2125 47.5563 39.8597L48.4221 41.9606C49.7293 45.0758 51.686 49.1747 52.6655 52.3575C52.8565 51.9453 53.0452 51.5319 53.2416 51.1223C55.1446 47.0867 56.5076 43.52 57.0098 39.0992C57.4474 35.2462 56.4044 33.4978 52.1396 33.4981L49.6196 33.5011ZM36.1104 36.5111H31.4119C31.4188 38.9758 31.5413 38.4117 30.6587 40.5837L28.9448 44.7797C28.6293 45.542 28.2591 46.3028 28.0012 47.0848C29.2107 46.9906 30.4148 46.7331 31.6219 46.5998C34.0024 46.3372 36.3983 46.2344 38.7923 46.2395L40.6794 46.2434C40.6794 46.2434 46.9219 46.4694 48.6141 47.0848C48.094 45.3503 46.8407 42.6458 46.1123 40.9267C45.1174 38.5794 45.218 39.1416 45.2319 36.5111C43.7069 36.4941 42.1808 36.5133 40.6557 36.5111C40.6557 36.5111 36.9999 36.5145 36.1104 36.5111ZM37.3583 48.0002C33.9746 48.0361 30.5732 48.3558 27.2591 49.0444L23.8632 57.4778C23.4683 58.4348 22.9952 59.4127 22.8269 60.4408C22.3376 63.4303 24.4827 66.448 27.5601 66.7586C28.8338 66.8872 30.3955 66.8022 31.6941 66.8016L39.3555 66.8012L45.511 66.7998C46.7563 66.7998 48.5627 66.9305 49.7405 66.6403C52.3185 66.0053 54.0166 63.613 53.9946 60.9827C53.9846 59.7669 52.4619 56.4548 51.9344 55.1383L50.3794 51.2544C50.0649 50.4691 49.768 49.652 49.4005 48.8903C45.9693 48.3269 40.8629 47.7134 37.3583 48.0002Z" fill="currentColor"/>
<path d="M39.9106 42.9203C39.3342 42.9089 38.9295 42.7557 38.8259 42.1314C38.6678 41.1784 38.545 39.8612 39.7211 39.6989C41.1075 39.8154 41.0155 42.6034 39.9106 42.9203Z" fill="currentColor"/>
<path d="M39.9106 42.9203C39.3342 42.9089 38.9295 42.7557 38.8259 42.1314C38.6678 41.1784 38.545 39.8612 39.7211 39.6989C41.1075 39.8154 41.0155 42.6034 39.9106 42.9203Z" fill="url(#paint3_linear_200_84)"/>
<path d="M39.9106 52.0334C38.3154 52.1548 38.3377 49.4253 39.5396 49.0035C41.0995 48.8885 41.0927 51.6042 39.9106 52.0334Z" fill="currentColor"/>
<path d="M39.9106 52.0334C38.3154 52.1548 38.3377 49.4253 39.5396 49.0035C41.0995 48.8885 41.0927 51.6042 39.9106 52.0334Z" fill="url(#paint4_linear_200_84)"/>
<defs>
<linearGradient id="paint0_linear_200_84" x1="38.0037" y1="35.8011" x2="40.5037" y2="35.8011" gradientUnits="userSpaceOnUse">
<stop stop-color="#4318D1"/>
<stop offset="1" stop-color="#18D1B8"/>
</linearGradient>
<linearGradient id="paint1_linear_200_84" x1="37.9823" y1="46.0098" x2="40.4525" y2="46.0098" gradientUnits="userSpaceOnUse">
<stop stop-color="#4318D1"/>
<stop offset="1" stop-color="#18D1B8"/>
</linearGradient>
<linearGradient id="paint2_linear_200_84" x1="26.8714" y1="36.0524" x2="36.5042" y2="36.0524" gradientUnits="userSpaceOnUse">
<stop stop-color="#4318D1"/>
<stop offset="1" stop-color="#18D1B8"/>
</linearGradient>
<linearGradient id="paint3_linear_200_84" x1="38" y1="41" x2="40.5" y2="41" gradientUnits="userSpaceOnUse">
<stop stop-color="#4318D1"/>
<stop offset="1" stop-color="#18D1B8"/>
</linearGradient>
<linearGradient id="paint4_linear_200_84" x1="38.5" y1="50.2686" x2="40.5" y2="50.2686" gradientUnits="userSpaceOnUse">
<stop stop-color="#4318D1"/>
<stop offset="1" stop-color="#18D1B8"/>
</linearGradient>
</defs>
</svg>
