<svg xmlns="http://www.w3.org/2000/svg" xmlns:xlink="http://www.w3.org/1999/xlink" version="1.1" x="0px" y="0px" viewBox="0 0 120 120" style="enable-background:new 0 0 120 120;" xml:space="preserve">
  <g transform="translate(10, 10)">
    <path d="M71.2,24.8l3-4.9c-2.5-0.9-5.1-1.6-7.7-2.2c0,0,0,0.1,0,0.1l-0.8,1.5c-0.1,0.2-0.4,0.4-0.6,0.4c-0.1,0-0.2,0-0.3-0.1   c-0.3-0.2-0.4-0.6-0.3-0.9l0.7-1.2c-4.9-1-10-1.5-15.1-1.5c-8.4,0-16.8,1.4-24.2,4l3,4.9H71.2z M61.7,23.7l1.5-2.8   c0.2-0.3,0.6-0.4,0.9-0.3c0.3,0.2,0.4,0.6,0.3,0.9l-1.5,2.8c-0.1,0.2-0.4,0.4-0.6,0.4c-0.1,0-0.2,0-0.3-0.1   C61.6,24.4,61.5,24,61.7,23.7z"/>
    <polygon points="23.1,27.5 40.8,59.6 59.2,59.6 76.9,27.5  "/>
    <polygon points="40,62.3 33.7,62.3 33.7,65.5 66.3,65.5 66.3,62.3 60,62.3  "/>
    <path d="M54.5,79.6c0-1.7-2.4-6.2-4.5-9.5c-2.1,3.3-4.5,7.8-4.5,9.5c0,2.5,2,4.5,4.5,4.5S54.5,82.1,54.5,79.6z"/>
  </g>
</svg>