<svg xmlns="http://www.w3.org/2000/svg" viewBox="0 0 100 125" x="0px" y="0px"><path d="M42.64,79.25h14.71c7.94,0,14.39-6.46,14.39-14.39v-18.46H28.25v18.46c0,7.94,6.46,14.39,14.39,14.39Z"/><path d="M20.63,86.02h58.73c.83,0,1.51-.68,1.51-1.51v-2.25c0-.83-.68-1.51-1.51-1.51H20.63c-.83,0-1.51,.68-1.51,1.51v2.25c0,.83,.68,1.51,1.51,1.51Z"/><path d="M72.51,87.52H27.49l1.55,3.48c.88,1.97,2.84,3.25,5,3.25h31.92c2.16,0,4.12-1.27,5-3.25l1.55-3.48Z"/><path d="M73.25,51.32h6.17c.34,0,.64,.23,.73,.56,.05,.19,1.15,4.57-1.17,7.57-1.23,1.59-3.16,2.45-5.72,2.59v3.8c3.55-.15,6.28-1.37,8.12-3.63,3.78-4.65,2.87-12.47,2.52-14.68h-10.64v3.79Z"/><path d="M78.8,52.82h-5.55v7.73c2.07-.13,3.6-.8,4.53-2.01,1.44-1.86,1.21-4.56,1.02-5.72Z"/><path d="M49.59,37.63s.06,.05,.09,.09c2.36-1.91,10.59-9.45,3.39-16.86-5.7-5.86-3.83-13.35-3.07-15.65-.08-.03-.15-.07-.22-.13h0c-2.01,2.47-9.3,12.3-3.67,18.56,7.07,7.86,4.69,12.48,3.48,13.99Z"/></svg>