<svg xmlns="http://www.w3.org/2000/svg" viewBox="0 0 72 72">
  <title>1</title>
  <g data-name="Layer 26" transform="translate(6, 6)">
    <path d="M60.09,28.4,55.39,28a15,15,0,0,0-1.5-3.61l3-3.63a1,1,0,0,0-.06-1.35L53.27,15.8a1,1,0,0,0-1.35-.06l-3.63,3a15,15,0,0,0-3.61-1.5l-.42-4.7a1,1,0,0,0-1-.91H38.18a1,1,0,0,0-1,.91l-.42,4.7a15,15,0,0,0-3.61,1.5l-3.63-3a1,1,0,0,0-1.35.06l-3.58,3.58a1,1,0,0,0-.06,1.35l3,3.63A15,15,0,0,0,26.05,28l-4.7.42a1,1,0,0,0-.91,1v5.07a1,1,0,0,0,.91,1l4.7.42a15,15,0,0,0,1.5,3.61l-3,3.63a1,1,0,0,0,.06,1.35l3.58,3.58a1,1,0,0,0,1.35.06l3.63-3a15,15,0,0,0,3.61,1.5l.42,4.7a1,1,0,0,0,1,.91h5.07a1,1,0,0,0,1-.91l.42-4.7a15,15,0,0,0,3.61-1.5l3.63,3a1,1,0,0,0,1.35-.06l3.58-3.58a1,1,0,0,0,.06-1.35l-3-3.63a15,15,0,0,0,1.5-3.61l4.7-.42a1,1,0,0,0,.91-1V29.4A1,1,0,0,0,60.09,28.4ZM59,33.56l-4.49.4h0a1,1,0,0,0-.2.06.82.82,0,0,0-.54.48,1,1,0,0,0-.08.19l0,0a13,13,0,0,1-1.79,4.32l0,0a1,1,0,0,0-.08.2.82.82,0,0,0,0,.72,1,1,0,0,0,.1.18l0,0,2.89,3.47L52.5,46,49,43.12l0,0a1,1,0,0,0-.18-.1,1,1,0,0,0-.17-.07l-.18,0a1,1,0,0,0-.2,0l-.16,0a1,1,0,0,0-.2.08l0,0a13,13,0,0,1-4.32,1.79l-.05,0-.14.06a.83.83,0,0,0-.51.55,1,1,0,0,0-.06.2s0,0,0,0l-.4,4.49H39.1l-.4-4.49s0,0,0,0a1,1,0,0,0-.05-.18.61.61,0,0,0-.18-.31A1,1,0,0,0,38.3,45a1,1,0,0,0-.16-.09,1,1,0,0,0-.18-.08l-.05,0A13,13,0,0,1,33.59,43l0,0a1,1,0,0,0-.2-.08l-.17-.05H33l-.19,0a1,1,0,0,0-.17.07,1,1,0,0,0-.18.1l0,0L28.94,46l-2.29-2.29,2.89-3.47,0,0a1,1,0,0,0,.1-.19.82.82,0,0,0,0-.72,1,1,0,0,0-.08-.19l0,0a13,13,0,0,1-1.79-4.32l0,0a1,1,0,0,0-.08-.19,1.21,1.21,0,0,0-.37-.41L27.18,34A1,1,0,0,0,27,34h0l-4.49-.4V30.31l4.49-.4.09,0a1,1,0,0,0,.23-.07l.13-.07a1,1,0,0,0,.17-.14l.1-.11a1,1,0,0,0,.1-.19,1,1,0,0,0,.06-.14l0,0a13,13,0,0,1,1.79-4.32l0,0a1,1,0,0,0,.08-.19.82.82,0,0,0,0-.72,1,1,0,0,0-.1-.18l0,0-2.89-3.47,2.29-2.29,3.47,2.89,0,0a1,1,0,0,0,.28.15l.06,0a1,1,0,0,0,.27,0h.15a1,1,0,0,0,.24-.07l.1,0,.05,0A13,13,0,0,1,37.91,19L38,19l.2-.09.14-.09a.86.86,0,0,0,.32-.47,1,1,0,0,0,0-.17s0,0,0,0l.4-4.49h3.25l.4,4.49s0,0,0,0a1,1,0,0,0,.06.2.82.82,0,0,0,.48.54,1,1,0,0,0,.19.08l0,0a13,13,0,0,1,4.32,1.79l.05,0,.09,0a1,1,0,0,0,.25.07h.15a1,1,0,0,0,.27,0l.05,0a1,1,0,0,0,.28-.15l0,0,3.47-2.89,2.29,2.29-2.89,3.47,0,0a1,1,0,0,0-.1.19.82.82,0,0,0,0,.71,1,1,0,0,0,.08.2l0,0a13,13,0,0,1,1.79,4.32l0,0a1,1,0,0,0,.06.14,1,1,0,0,0,.1.19l.1.11a1,1,0,0,0,.17.14l.13.07a1,1,0,0,0,.23.07l.09,0,4.49.4Z"/>
    <path d="M40.72,20.84a11.1,11.1,0,1,0,11.1,11.1A11.11,11.11,0,0,0,40.72,20.84Zm0,20.2a9.1,9.1,0,1,1,9.1-9.1A9.11,9.11,0,0,1,40.72,41Z"/>
    <path d="M41.29,24.55a4,4,0,0,0-.57,0c-2.1,0-4,1.54-4.94,4a9.61,9.61,0,0,0-.61,3.4A9.47,9.47,0,0,0,36,35.75a5.93,5.93,0,0,0,3.56,3.44c.13,0,.26.06.39.08l.07,0,.18,0h0l.12,0h.62c2.31-.1,4.29-2.05,5-5a9.77,9.77,0,0,0,.31-2.46,9.51,9.51,0,0,0-.54-3.21C44.89,26.36,43.23,24.8,41.29,24.55ZM37.78,34.94a7.46,7.46,0,0,1-.6-3,7.59,7.59,0,0,1,.48-2.69,4.5,4.5,0,0,1,1.9-2.42,2.9,2.9,0,0,0-.26,1.25,3,3,0,0,0,.59,1.84,1.17,1.17,0,0,1,0,1.47,4.54,4.54,0,0,0-.29.48l0,.07a2.84,2.84,0,0,0-.13.41c0,.06,0,.12-.06.19a3.23,3.23,0,0,0-.07.69,3.52,3.52,0,0,0,.1.83,3.29,3.29,0,0,0,.49,1,1.17,1.17,0,0,1,0,1.47,4.68,4.68,0,0,0-.29.52A4.31,4.31,0,0,1,37.78,34.94Zm6.24-1A4.94,4.94,0,0,1,41.88,37a2.9,2.9,0,0,0,.26-1.25A3,3,0,0,0,41.56,34a1.52,1.52,0,0,1-.22-.4,1.39,1.39,0,0,1,0-.17,1.3,1.3,0,0,1,0-.17,1,1,0,0,1,.06-.36l0-.1,0,0c0-.08.1-.16.15-.23a3.15,3.15,0,0,0,0-3.67,1.17,1.17,0,0,1,0-1.47,4.52,4.52,0,0,0,.31-.54,4.6,4.6,0,0,1,2,2.58h0a7.63,7.63,0,0,1,.42,2.54A7.76,7.76,0,0,1,44,33.89Z"/>
    <path d="M25.2,45.61l-2.26-.2a8.65,8.65,0,0,0-.63-1.51l1.45-1.75a1,1,0,0,0-.06-1.35l-2-2a1,1,0,0,0-1.35-.06l-1.75,1.45a8.66,8.66,0,0,0-1.51-.63l-.2-2.26a1,1,0,0,0-1-.91H13.17a1,1,0,0,0-1,.91L12,39.61a8.66,8.66,0,0,0-1.51.63L8.71,38.79a1,1,0,0,0-1.35.06l-2,2a1,1,0,0,0-.06,1.35L6.8,43.9a8.65,8.65,0,0,0-.63,1.51l-2.26.2a1,1,0,0,0-.91,1v2.78a1,1,0,0,0,.91,1l2.26.2A8.65,8.65,0,0,0,6.8,52.1L5.34,53.84a1,1,0,0,0,.06,1.35l2,2a1,1,0,0,0,1.35.06l1.75-1.45a8.66,8.66,0,0,0,1.51.63l.2,2.26a1,1,0,0,0,1,.91h2.78a1,1,0,0,0,1-.91l.2-2.26a8.66,8.66,0,0,0,1.51-.63l1.75,1.45a1,1,0,0,0,1.35-.06l2-2a1,1,0,0,0,.06-1.35L22.32,52.1a8.65,8.65,0,0,0,.63-1.51l2.26-.2a1,1,0,0,0,.91-1V46.61A1,1,0,0,0,25.2,45.61Zm-1.09,2.86-2,.18h0a1,1,0,0,0-.19.06.82.82,0,0,0-.55.47,1,1,0,0,0-.09.2l0,0a6.69,6.69,0,0,1-.92,2.21l0,0a1,1,0,0,0-.08.19.82.82,0,0,0,0,.72,1,1,0,0,0,.1.19l0,0,1.32,1.58-.67.67L19.4,53.78l0,0a1,1,0,0,0-.18-.1,1,1,0,0,0-.17-.07l-.17,0a1,1,0,0,0-.21,0l-.16,0a1,1,0,0,0-.21.08l0,0a6.68,6.68,0,0,1-2.21.92l-.05,0-.15.07a.82.82,0,0,0-.51.54,1,1,0,0,0-.06.21s0,0,0,0l-.18,2h-1l-.18-2s0,0,0,0a1,1,0,0,0-.06-.2.84.84,0,0,0-.5-.55l-.16-.07-.05,0a6.68,6.68,0,0,1-2.21-.92l0,0a1,1,0,0,0-.2-.08l-.17,0h-.19l-.19,0a1,1,0,0,0-.17.07,1,1,0,0,0-.18.1l0,0L8.13,55.09l-.67-.67,1.32-1.58,0,0a1,1,0,0,0,.1-.19.82.82,0,0,0,0-.72,1,1,0,0,0-.08-.19l0,0a6.69,6.69,0,0,1-.92-2.21l0,0a1,1,0,0,0-.08-.19,1,1,0,0,0-.09-.16,1,1,0,0,0-.14-.13,1,1,0,0,0-.14-.12,1,1,0,0,0-.18-.07,1,1,0,0,0-.19-.06H7l-2-.18v-1l2-.18.09,0a1,1,0,0,0,.23-.07l.13-.07A1,1,0,0,0,7.66,47l.1-.11a1,1,0,0,0,.1-.19,1,1,0,0,0,.06-.14l0,0a6.69,6.69,0,0,1,.92-2.21l0,0a1,1,0,0,0,.08-.19.82.82,0,0,0,0-.72,1,1,0,0,0-.1-.18l0,0L7.46,41.58l.67-.67,1.58,1.32,0,0a1,1,0,0,0,.28.15l.06,0a1,1,0,0,0,.27,0h.15a1,1,0,0,0,.24-.07l.09,0,.05,0a6.68,6.68,0,0,1,2.21-.92l0,0a1,1,0,0,0,.18-.08.82.82,0,0,0,.49-.54,1,1,0,0,0,.06-.2s0,0,0,0l.18-2h1l.18,2s0,0,0,0a1,1,0,0,0,0,.17,1.09,1.09,0,0,0,.32.46l.14.09.2.09.07,0a6.68,6.68,0,0,1,2.21.92l.05,0,.1,0a1,1,0,0,0,.25.07h.15a1,1,0,0,0,.27,0l.05,0a1,1,0,0,0,.28-.15l0,0L21,40.91l.67.67-1.32,1.58,0,0a1,1,0,0,0-.1.18.82.82,0,0,0,0,.72,1,1,0,0,0,.08.19l0,0a6.69,6.69,0,0,1,.92,2.21l0,0a1,1,0,0,0,.06.14,1,1,0,0,0,.1.19l.1.11a1,1,0,0,0,.17.14l.13.07a1,1,0,0,0,.23.07l.09,0,2,.18Z"/>
    <path d="M3.91,18.39l2.26.2A8.65,8.65,0,0,0,6.8,20.1L5.34,21.84a1,1,0,0,0,.06,1.35l2,2a1,1,0,0,0,1.35.06l1.75-1.45a8.66,8.66,0,0,0,1.51.63l.2,2.26a1,1,0,0,0,1,.91h2.78a1,1,0,0,0,1-.91l.2-2.26a8.66,8.66,0,0,0,1.51-.63l1.75,1.45a1,1,0,0,0,1.35-.06l2-2a1,1,0,0,0,.06-1.35L22.32,20.1a8.65,8.65,0,0,0,.63-1.51l2.26-.2a1,1,0,0,0,.91-1V14.61a1,1,0,0,0-.91-1l-2.26-.2a8.65,8.65,0,0,0-.63-1.51l1.45-1.75a1,1,0,0,0-.06-1.35l-2-2a1,1,0,0,0-1.35-.06L18.66,8.24a8.66,8.66,0,0,0-1.51-.63l-.2-2.26a1,1,0,0,0-1-.91H13.17a1,1,0,0,0-1,.91L12,7.61a8.66,8.66,0,0,0-1.51.63L8.71,6.79a1,1,0,0,0-1.35.06l-2,2a1,1,0,0,0-.06,1.35L6.8,11.9a8.65,8.65,0,0,0-.63,1.51l-2.26.2a1,1,0,0,0-.91,1v2.78A1,1,0,0,0,3.91,18.39ZM5,15.52l2-.18.09,0a1,1,0,0,0,.23-.07l.13-.07A1,1,0,0,0,7.66,15l.1-.11a1,1,0,0,0,.1-.19,1,1,0,0,0,.06-.14l0,0a6.69,6.69,0,0,1,.92-2.21l0,0a1,1,0,0,0,.08-.19.82.82,0,0,0,0-.72,1,1,0,0,0-.1-.18l0,0L7.46,9.58l.67-.67,1.58,1.32,0,0a1,1,0,0,0,.28.15l.06,0a1,1,0,0,0,.27,0h.15a1,1,0,0,0,.24-.07l.1,0,.05,0a6.68,6.68,0,0,1,2.21-.92l.05,0,.17-.07a1.19,1.19,0,0,0,.43-.38,1,1,0,0,0,.07-.17,1,1,0,0,0,.06-.2s0,0,0,0l.18-2h1l.18,2s0,0,0,0a1,1,0,0,0,0,.17,1.09,1.09,0,0,0,.32.46l.14.09.2.09.07,0a6.68,6.68,0,0,1,2.21.92l.05,0,.09,0a1,1,0,0,0,.25.07h.15a1,1,0,0,0,.27,0l.05,0a1,1,0,0,0,.28-.15l0,0L21,8.91l.67.67-1.32,1.58,0,0a1,1,0,0,0-.1.18.82.82,0,0,0,0,.72,1,1,0,0,0,.08.19l0,0a6.69,6.69,0,0,1,.92,2.21l0,0a1,1,0,0,0,.06.14,1,1,0,0,0,.1.19l.1.11a1,1,0,0,0,.17.14l.13.07a1,1,0,0,0,.23.07l.09,0,2,.18v1l-2,.18h0a1,1,0,0,0-.19.06.82.82,0,0,0-.54.47,1,1,0,0,0-.09.2l0,0a6.69,6.69,0,0,1-.92,2.21l0,0a1,1,0,0,0-.08.19.82.82,0,0,0,0,.72,1,1,0,0,0,.1.19l0,0,1.32,1.58-.67.67L19.4,21.78l0,0a1,1,0,0,0-.18-.1,1,1,0,0,0-.17-.07l-.18,0a1,1,0,0,0-.2,0l-.16,0a1,1,0,0,0-.2.08l0,0a6.68,6.68,0,0,1-2.21.92l-.05,0-.16.07a.82.82,0,0,0-.5.54,1,1,0,0,0-.06.21s0,0,0,0l-.18,2h-1l-.18-2s0,0,0,0a1,1,0,0,0-.06-.2.83.83,0,0,0-.49-.55l-.17-.07-.05,0a6.68,6.68,0,0,1-2.21-.92l0,0a1,1,0,0,0-.19-.08l-.17-.05H10.3l-.19,0-.16.07a1,1,0,0,0-.19.1l0,0L8.13,23.09l-.67-.67,1.32-1.58,0,0a1,1,0,0,0,.1-.19.82.82,0,0,0,0-.72,1,1,0,0,0-.08-.19l0,0a6.69,6.69,0,0,1-.92-2.21l0,0a1,1,0,0,0-.08-.19,1,1,0,0,0-.09-.16,1,1,0,0,0-.14-.13,1,1,0,0,0-.15-.12,1,1,0,0,0-.17-.07,1,1,0,0,0-.2-.06H7l-2-.18Z"/>
    <path d="M14.42,20.63A4.58,4.58,0,1,0,9.83,16,4.59,4.59,0,0,0,14.42,20.63Zm0-7.17A2.58,2.58,0,1,1,11.83,16,2.59,2.59,0,0,1,14.42,13.46Z"/>
    <path d="M14.42,43.33A4.58,4.58,0,1,0,19,47.92,4.59,4.59,0,0,0,14.42,43.33Zm0,7.17A2.58,2.58,0,1,1,17,47.92,2.59,2.59,0,0,1,14.42,50.5Z"/>
  </g>
</svg>