<svg xmlns="http://www.w3.org/2000/svg" version="1.1" viewBox="0 0 150 150">
  <g transform="translate(25, 25)">
    <path d="m97.891 46.141c-0.44531-1.4648-1.1328-2.8398-2.0312-4.082-1.332-1.8398-3.0703-3.2539-5.1719-4.1836-1.5234-0.67578-3.2031-1.0898-5.1211-1.2812 0.10156-1.4531 0.15234-2.918 0.15234-4.4023 0-5.9805-4.3125-11.535-12.152-15.637-7.5234-3.9375-17.477-6.1094-28.012-6.1094-10.535 0-20.484 2.1719-28.012 6.1094-7.8242 4.1016-12.141 9.6562-12.141 15.637 0 6.8477 1.0508 13.305 3.1211 19.191 1.4961 4.2539 3.4961 8.1406 5.9688 11.598-8.3906 2.8477-12.977 6.7578-12.977 11.121 0 4.4961 4.668 8.4023 13.504 11.293 8.1836 2.6758 19.031 4.1602 30.547 4.1602s22.363-1.4766 30.547-4.1602c8.8281-2.8984 13.504-6.7969 13.504-11.293 0-2.1094-1.0898-5.0195-5.7461-7.8672 0.41406-0.12109 0.83984-0.25391 1.2539-0.38281 7.5234-2.5039 12.062-7.0508 13.133-13.172 0.12109-0.71875 0.20313-1.3828 0.23047-1.9883 0.046875-1.5391-0.14453-3.0664-0.59766-4.5508zm-13.598 0.47656c0.96094 0.070312 1.707 0.23047 2.293 0.49609 0.45312 0.20312 0.80859 0.48438 1.0898 0.86719 0.23047 0.33203 0.41406 0.69531 0.53516 1.0898 0.10937 0.38281 0.16016 0.76953 0.14062 1.1602-0.019531 0.41406-0.039062 0.61719-0.0625 0.69531-0.49609 2.8281-3.7383 4.4648-6.3633 5.3438-0.50391 0.17188-1.0312 0.32422-1.5859 0.46484 0.83984-1.707 1.5859-3.4961 2.2422-5.3555 0.54688-1.5547 1.0195-3.1602 1.4258-4.7891 0.11328 0.015625 0.19531 0.015625 0.28516 0.027344zm-65.332-27.375c7.1016-3.7188 16.547-5.7695 26.605-5.7695 10.051 0 19.504 2.0508 26.598 5.7695 6.7891 3.5547 10.523 8.1523 10.523 12.949s-3.7383 9.3945-10.523 12.949c-7.1016 3.7188-16.547 5.7695-26.598 5.7695-10.051 0-19.504-2.0508-26.605-5.7695-6.7891-3.5547-10.523-8.1523-10.523-12.949-0.003906-4.7969 3.7344-9.3945 10.523-12.949zm-1.4062 28.574c7.5234 3.9375 17.477 6.1094 28.012 6.1094s20.484-2.1719 28.012-6.1094c3.5469-1.8594 6.3633-4.0117 8.4023-6.3633-0.98047 6.1406-2.9375 11.707-5.6953 16.504-0.070312 0.10156-0.14062 0.21094-0.18359 0.32422-1.4961 2.5469-3.2109 4.8672-5.1406 6.9297-0.19141 0.13281-0.35547 0.29297-0.47656 0.49609-6.4453 6.6758-15.062 10.566-24.918 10.566-11.082 0-20.605-4.918-27.223-13.184-0.089844-0.17188-0.21094-0.32422-0.35547-0.45312-4.4336-5.6953-7.5156-12.918-8.8281-21.184 2.0234 2.3555 4.8516 4.5156 8.3945 6.3633zm69.02 26.285c0 5.8789-16.84 12.426-41.012 12.426s-41.02-6.5469-41.02-12.426c0-3.0312 4.4336-6.2031 11.91-8.5742 0.21094 0.25391 0.42578 0.49609 0.63672 0.74609 7.375 8.4023 17.484 13.031 28.465 13.031 10.223 0 19.676-4.0117 26.879-11.332 1.9375-0.082031 4.3242-0.27344 6.8594-0.70703 4.6367 2.0898 7.2812 4.5625 7.2812 6.8359zm8.8711-23.555c-0.019531 0.48438-0.089843 1.0312-0.19141 1.6172-0.87891 5.0195-4.6055 8.6562-11.102 10.809-1.6172 0.53516-3.2617 0.92969-4.8789 1.2227-0.050782 0.011719-0.089844 0.019532-0.14063 0.03125-1.332 0.24219-2.625 0.40234-3.8398 0.51563 1.1328-1.4141 2.1719-2.918 3.1328-4.4844 1.6055-0.28125 3.1016-0.65625 4.4648-1.1016 6.1836-2.0508 7.9805-5.3242 8.3945-7.6875 0.050782-0.28125 0.082032-0.64453 0.10156-1.0898 0.03125-0.71875-0.050781-1.4453-0.27344-2.1719-0.22266-0.71875-0.55469-1.3945-0.98828-2-0.59766-0.81641-1.3828-1.4453-2.3125-1.8594-0.85938-0.38281-1.8984-0.625-3.1406-0.73828 0.25391-1.3125 0.45312-2.6367 0.61719-3.9883 1.5859 0.16016 2.9492 0.50391 4.1602 1.0391 1.625 0.72656 2.918 1.7695 3.9492 3.1914 0.70703 0.96875 1.2305 2.0391 1.5859 3.1836 0.35938 1.1484 0.51172 2.3281 0.46094 3.5117zm-58.406-23.172c0.98047 1.2031 2.1211 2.0625 3.2305 2.8984 1.6875 1.2734 3.1406 2.3828 3.8594 4.5039 0.21094 0.61719 0.78906 1.0312 1.4336 1.0312s1.2305-0.41406 1.4336-1.0312c0.71875-2.1211 2.1719-3.2305 3.8594-4.5039 1.1016-0.83984 2.2422-1.6953 3.2305-2.8984 4.0195-4.9102 2.8984-8.2109 1.8789-9.7461-1.5977-2.3828-5.0195-3.5039-7.9688-2.6055-0.96875 0.29297-1.7891 0.78906-2.4258 1.4258-0.63672-0.63672-1.4531-1.1328-2.4258-1.4258-2.9492-0.89844-6.3828 0.22266-7.9805 2.6055-1.0312 1.5312-2.1445 4.8359 1.875 9.7461zm0.63672-8.0625c0.85938-1.2734 2.9102-1.8984 4.5742-1.3945 1.1914 0.36328 1.7969 1.1719 1.7969 2.4141 0 0.83984 0.67578 1.5156 1.5156 1.5156s1.5156-0.67578 1.5156-1.5156c0-1.2422 0.60547-2.0508 1.7891-2.4141 1.668-0.50391 3.7188 0.12109 4.5742 1.3945 0.96094 1.4336 0.35547 3.6172-1.707 6.1328-0.75781 0.91797-1.707 1.6367-2.707 2.4023-1.1719 0.89062-2.4453 1.8477-3.4648 3.2109-1.0312-1.375-2.293-2.332-3.4648-3.2109-1.0117-0.75781-1.9609-1.4844-2.7188-2.4023-2.0547-2.5156-2.6602-4.6875-1.7031-6.1328zm-2.332 24.598c3.5859 1.5039 7.293 3.0625 9.1914 5.2305 0.29297 0.33203 0.70703 0.51562 1.1406 0.51562 0.43359 0 0.84766-0.19141 1.1406-0.51562 1.9102-2.1719 5.6172-3.7266 9.1914-5.2305 5.1211-2.1406 10.414-4.3633 11.535-8.8477 0.75781-3.0312-0.54688-6.5547-3.9805-10.777-0.39453-0.47656-1.0312-0.67578-1.6172-0.49609-0.58594 0.18359-1.0117 0.69531-1.0703 1.3125-0.51562 5.8398-3.8906 7.3125-8.1523 9.1719-2.2734 0.98828-4.8086 2.1016-7.0391 4-2.2305-1.9102-4.7695-3.0117-7.0391-4-4.2617-1.8594-7.6367-3.332-8.1523-9.1719-0.050782-0.61719-0.47656-1.1328-1.0703-1.3125-0.58594-0.18359-1.2305 0.011719-1.6172 0.49609-3.4336 4.2227-4.7383 7.7461-3.9805 10.777 1.1133 4.4844 6.4062 6.707 11.52 8.8477zm-7.1602-14.973c1.625 4.7969 5.4961 6.4766 9.2422 8.1094 2.5156 1.0898 5.1094 2.2305 7.1719 4.3555 0.28125 0.29297 0.67578 0.46484 1.0898 0.46484s0.80859-0.17188 1.0898-0.46484c2.0508-2.1211 4.6562-3.2539 7.1602-4.3555 3.7578-1.6367 7.6172-3.3242 9.2422-8.1211 1.3047 2.1406 1.7891 3.9492 1.4258 5.3828-0.74609 3.0117-5.332 4.9297-9.7578 6.7891-3.332 1.3945-6.7578 2.8398-9.1602 4.9102-2.4023-2.0703-5.8281-3.5039-9.1602-4.9102-4.4336-1.8594-9.0117-3.7773-9.7695-6.7891-0.36328-1.418 0.12109-3.2266 1.4258-5.3711z"/>
  </g>
</svg>