<svg xmlns="http://www.w3.org/2000/svg" viewBox="0 0 2.2 2.2" fill-rule="evenodd" clip-rule="evenodd">
  <g transform="translate(0.3915, 0.3) scale(0.878)">
    <rect x="0.005" width="1.604" height="1.604" fill="none"/>
    <path fill="currentColor" d="M0.641 0c-0.287,0.287 -0.641,0.609 -0.641,0.962 0,0.353 0.289,0.642 0.641,0.642 0.226,0 0.425,-0.118 0.54,-0.295 -0.266,-0.017 -0.476,-0.238 -0.476,-0.507 0,-0.197 0.112,-0.368 0.276,-0.452 -0.107,-0.122 -0.228,-0.239 -0.34,-0.35zm0.572 0.401c0.221,0 0.401,0.179 0.401,0.401 0,0.221 -0.18,0.401 -0.401,0.401 -0.221,0 -0.401,-0.18 -0.401,-0.401 0,-0.222 0.18,-0.401 0.401,-0.401zm-0.16 0.454c-0.03,0 -0.054,-0.024 -0.054,-0.053 0,-0.03 0.024,-0.054 0.054,-0.054l0.107 0 0 -0.106c0,-0.03 0.023,-0.054 0.053,-0.054 0.03,0 0.053,0.024 0.053,0.054l0 0.106 0.107 0c0.03,0 0.054,0.024 0.054,0.054 0,0.029 -0.024,0.053 -0.054,0.053l-0.107 0 0 0.107c0,0.03 -0.023,0.054 -0.053,0.054 -0.03,0 -0.053,-0.024 -0.053,-0.054l0 -0.107 -0.107 0zm-0.463 0.398c0.03,0 0.054,0.024 0.054,0.054 0,0.029 -0.024,0.053 -0.054,0.053 -0.103,0 -0.196,-0.042 -0.264,-0.11 -0.068,-0.068 -0.11,-0.161 -0.11,-0.264 0,-0.03 0.024,-0.054 0.054,-0.054 0.029,0 0.053,0.024 0.053,0.054 0,0.073 0.03,0.14 0.079,0.188 0.048,0.049 0.115,0.079 0.188,0.079z"/>
  </g>
</svg>