<svg xmlns="http://www.w3.org/2000/svg" xmlns:dc="http://purl.org/dc/elements/1.1/" xmlns:cc="http://creativecommons.org/ns#" xmlns:rdf="http://www.w3.org/1999/02/22-rdf-syntax-ns#" xmlns:sodipodi="http://sodipodi.sourceforge.net/DTD/sodipodi-0.dtd" xmlns:inkscape="http://www.inkscape.org/namespaces/inkscape" viewBox="0 0 25.4 25.4" version="1.1" x="0px" y="0px">
  <g transform="translate(5.647, 4.5) scale(0.833)">
    <path style="color:#000000;font-style:normal;font-variant:normal;font-weight:normal;font-stretch:normal;font-size:medium;line-height:normal;font-family:sans-serif;font-variant-ligatures:normal;font-variant-position:normal;font-variant-caps:normal;font-variant-numeric:normal;font-variant-alternates:normal;font-variant-east-asian:normal;font-feature-settings:normal;font-variation-settings:normal;text-indent:0;text-align:start;text-decoration:none;text-decoration-line:none;text-decoration-style:solid;text-decoration-color:#000000;letter-spacing:normal;word-spacing:normal;text-transform:none;writing-mode:lr-tb;direction:ltr;text-orientation:mixed;dominant-baseline:auto;baseline-shift:baseline;text-anchor:start;white-space:normal;shape-padding:0;shape-margin:0;inline-size:0;clip-rule:nonzero;display:inline;overflow:visible;visibility:visible;opacity:1;isolation:auto;mix-blend-mode:normal;color-interpolation:sRGB;color-interpolation-filters:linearRGB;solid-color:#000000;solid-opacity:1;vector-effect:none;fill:#000000;fill-opacity:1;fill-rule:nonzero;stroke:none;stroke-width:5.29168;stroke-linecap:round;stroke-linejoin:round;stroke-miterlimit:4;stroke-dasharray:none;stroke-dashoffset:0;stroke-opacity:1;paint-order:stroke fill markers;color-rendering:auto;image-rendering:auto;shape-rendering:auto;text-rendering:auto;enable-background:accumulate;stop-color:#000000;stop-opacity:1" d="m 3.6262326,2.3077484 c -1.9527246,0.0023 -3.61045619,1.30496 -3.61245607,3.001929 -0.0020625,1.69699 1.65439397,2.997483 3.60710417,2.995169 0.8866965,-0.001 1.6945703,-0.538043 2.4435128,-1.022261 0.7489425,-0.484218 1.455175,-0.906282 1.874745,-0.906776 l 8.6325005,-0.01007 a 0.36057834,0.36057834 0 0 0 0.360118,-0.360119 l 0.0016,-1.428434 a 0.36057834,0.36057834 0 0 0 -0.360893,-0.360893 l -8.638838,0.01014 c -0.4195713,5e-4 -1.1224288,-0.419225 -1.86862,-0.901706 -0.7462425,-0.482481 -1.5520825,-1.018027 -2.4387747,-1.01698 z m 7.75e-4,0.721012 c 0.5690271,-6.75e-4 1.3075921,0.423702 2.0464246,0.901424 0.7388325,0.477722 1.4618738,1.018418 2.2609188,1.017473 l 8.277451,-0.0098 -7.5e-4,0.707139 -8.2726635,0.0099 c -0.7990425,9.1e-4 -1.5238575,0.54274 -2.265495,1.022234 -0.7416375,0.479494 -1.4837263,0.906102 -2.0527628,0.906775 -1.6363062,0.0019 -2.88679655,-1.056189 -2.8853168,-2.273171 a 0.36057834,0.36057834 0 0 0 0,-2.87e-4 c 0.00141,-1.216989 1.2558738,-2.279779 2.8921931,-2.281694 z m -1.9343888,2.59118 a 0.36054229,0.36054229 0 0 0 -0.2296338,0.08387 0.36054229,0.36054229 0 0 0 -0.045772,0.507786 c 0.511299,0.612858 1.3452276,0.987348 2.2769032,0.984236 0.5239659,-0.0017 0.9954147,-0.242578 1.4355459,-0.505674 A 0.36054229,0.36054229 0 0 0 5.253951,6.1956794 A 0.36054229,0.36054229 0 0 0 4.759756,6.0711104 c -0.402085,0.240352 -0.7814523,0.402542 -1.068034,0.403496 -0.73455,0.0025 -1.3674685,-0.301332 -1.7209513,-0.725026 a 0.36054229,0.36054229 0 0 0 -0.2781519,-0.12964 z m 0.6498899,4.018417 a 0.36054139,0.36054139 0 0 0 -0.3598372,0.360541 0.36054139,0.36054139 0 0 0 0.3605413,0.3605406 0.36054139,0.36054139 0 0 0 0.3605414,-0.3605406 0.36054139,0.36054139 0 0 0 -0.3605414,-0.360541 0.36054139,0.36054139 0 0 0 -7e-4,0 z M 0.75612653,10.704911 a 0.36054139,0.36054139 0 0 0 -0.35983725,0.360542 0.36054139,0.36054139 0 0 0 0.36054137,0.360541 0.36054139,0.36054139 0 0 0 0.36054145,-0.360541 0.36054139,0.36054139 0 0 0 -0.36054145,-0.360542 0.36054139,0.36054139 0 0 0 -7e-4,0 z m 2.68025897,1.066555 a 0.36054139,0.36054139 0 0 0 -0.3599075,0.360542 0.36054139,0.36054139 0 0 0 0.3605413,0.360541 0.36054139,0.36054139 0 0 0 0.3605414,-0.360541 0.36054139,0.36054139 0 0 0 -0.3605414,-0.360542 0.36054139,0.36054139 0 0 0 -6.375e-4,0 z m -1.5383569,0.850159 a 0.36054139,0.36054139 0 0 0 -0.3598373,0.360542 0.36054139,0.36054139 0 0 0 0.3605414,0.360542 0.36054139,0.36054139 0 0 0 0.3605414,-0.360542 0.36054139,0.36054139 0 0 0 -0.3605414,-0.360542 0.36054139,0.36054139 0 0 0 -7e-4,0 z m -1.53821595,1.28288 A 0.36054139,0.36054139 0 0 0 -2.4594635e-5,14.265046 A 0.36054139,0.36054139 0 0 0 0.36051678,14.625587 A 0.36054139,0.36054139 0 0 0 0.72105815,14.265046 A 0.36054139,0.36054139 0 0 0 0.36051678,13.904505 a 0.36054139,0.36054139 0 0 0 -7e-4,0 z"/>
  </g>
</svg>