<svg xmlns="http://www.w3.org/2000/svg" viewBox="0 0 96 96" x="0px" y="0px">
  <g transform="translate(21.333, 18) scale(0.8333)">
    <path d="M35.8428,63h-7.68a.9994.9994,0,0,1-.728-.3145L2.8779,36.6084a1,1,0,0,1,.2974-1.5879c18.6069-8.8789,37.9985-8.8828,57.6357-.0088a1,1,0,0,1,.3164,1.5967L36.5708,62.6855A1,1,0,0,1,35.8428,63Zm-7.2481-2h6.8159l23.292-24.7339c-18.1982-7.8579-36.1562-7.8652-53.42-.021Z"/>
    <path d="M50.9136,33.3311a1,1,0,0,1-.7281-1.6856l8.5137-9.042a79.9535,79.9535,0,0,0-8.0683-2.99A61.74,61.74,0,0,0,13.29,19.5181a68.1375,68.1375,0,0,0-8.0122,3.0625l8.4405,8.959a1,1,0,0,1-1.4561,1.371l-9.39-9.9663A1,1,0,0,1,3.17,21.3564a70.9384,70.9384,0,0,1,9.5244-3.7475,63.7094,63.7094,0,0,1,38.5254.0937,83.1337,83.1337,0,0,1,9.5879,3.6446,1,1,0,0,1,.3174,1.5971L51.6416,33.0166A.9974.9974,0,0,1,50.9136,33.3311Z"/>
    <path d="M50.9253,19.6582a1,1,0,0,1-.728-1.6855L58.7,8.9409C40.51,1.083,22.55,1.0757,5.2778,8.92l8.4405,8.9585A1,1,0,0,1,12.2622,19.25l-9.39-9.9663A1,1,0,0,1,3.17,7.6953C21.7837-1.186,41.1768-1.188,60.8091,7.6865a1,1,0,0,1,.3159,1.5967L51.6533,19.3438A.9976.9976,0,0,1,50.9253,19.6582Z"/>
    <path d="M13.7793,40.7153a1,1,0,0,1-.32-1.9477s.1728-.0581.5024-.1577a1,1,0,1,1,.5791,1.914c-.2822.0855-.4336.1363-.4424.1392A.9984.9984,0,0,1,13.7793,40.7153Z"/>
    <path d="M18.3628,39.5405a1,1,0,0,1-.2026-1.979q.5038-.1047,1.0556-.21a1,1,0,1,1,.376,1.9638q-.5354.1026-1.0244.2046A1.0117,1.0117,0,0,1,18.3628,39.5405Zm27.375-.0156a1.0065,1.0065,0,0,1-.2114-.0225q-.5127-.1106-1.022-.2114a1,1,0,0,1,.3887-1.9619q.5252.104,1.0542.2183a1,1,0,0,1-.2095,1.9775Zm-22.147-.8555a1,1,0,0,1-.124-1.9922q.5229-.0658,1.0669-.1269a1,1,0,1,1,.2226,1.9873q-.5295.0593-1.0385.124A1.008,1.008,0,0,1,23.5908,38.6694Zm16.9234-.0376a1,1,0,0,1-.1265-.0078q-.5216-.0659-1.0381-.1225a1,1,0,0,1,.22-1.9883q.531.0593,1.0684.1264a1,1,0,0,1-.1235,1.9922Zm-11.6426-.4277a1,1,0,0,1-.0493-1.9985q.531-.0271,1.0756-.0459a.9838.9838,0,0,1,1.0337.9653,1,1,0,0,1-.9653,1.0337q-.5287.0175-1.0434.0439Q28.8973,38.2041,28.8716,38.2041Zm6.36-.0215-.0429-.001q-.5267-.0219-1.045-.0371a.9992.9992,0,0,1-.9716-1.0273A.9865.9865,0,0,1,34.2,36.1455q.5333.0147,1.0742.0381a1,1,0,0,1-.042,1.999Z"/>
    <path d="M50.3379,40.7158a1.0131,1.0131,0,0,1-.29-.0429l-.4721-.1412a1,1,0,1,1,.5634-1.9189l.4869.145a1,1,0,0,1-.2886,1.958Z"/>
    <path d="M14.1631,25.1162a1,1,0,0,1-.32-1.9477s.1728-.0581.5024-.1578a1,1,0,1,1,.5791,1.9141c-.2822.0855-.4336.1362-.4424.1392A.9984.9984,0,0,1,14.1631,25.1162Z"/>
    <path d="M18.7466,23.9414a1,1,0,0,1-.2027-1.979q.504-.1047,1.0557-.21a1,1,0,1,1,.376,1.9638q-.5354.1026-1.0244.2046A1.0117,1.0117,0,0,1,18.7466,23.9414Zm27.3745-.0151a1.0132,1.0132,0,0,1-.2114-.0225q-.5127-.1105-1.022-.2114a1,1,0,1,1,.3887-1.9619q.5251.104,1.0542.2182a1,1,0,0,1-.2095,1.9776Zm-22.1465-.8555a1,1,0,0,1-.124-1.9922q.5236-.0659,1.0683-.1269a1,1,0,1,1,.22,1.9882q-.5289.0579-1.0371.1231A1.008,1.008,0,0,1,23.9746,23.0708Zm16.9238-.0371a1.0175,1.0175,0,0,1-.1264-.0078q-.5215-.066-1.0381-.1226a1,1,0,0,1,.22-1.9883q.531.0594,1.0684.1265a1,1,0,0,1-.1236,1.9922Zm-11.643-.4282a1,1,0,0,1-.0493-1.9986q.531-.027,1.0756-.0459a.9832.9832,0,0,1,1.0337.9654A1,1,0,0,1,30.35,22.56q-.5288.0175-1.0435.0439C29.29,22.605,29.2725,22.6055,29.2554,22.6055Zm6.3608-.021-.043-.001q-.5273-.0221-1.0454-.0371a.9993.9993,0,0,1-.9716-1.0274.9816.9816,0,0,1,1.0273-.9716q.5332.0145,1.0747.038a1,1,0,0,1-.042,1.9991Z"/>
    <path d="M50.7217,25.1167a1.0133,1.0133,0,0,1-.29-.043l-.4726-.1411a1,1,0,1,1,.5634-1.9189l.4874.145a1,1,0,0,1-.2886,1.958Z"/>
    <path d="M13.9487,10.3125a1,1,0,0,1-.32-1.9478s.1729-.0581.5025-.1577a1,1,0,0,1,.5791,1.9141c-.2823.0854-.4336.1362-.4424.1392A.9994.9994,0,0,1,13.9487,10.3125Z"/>
    <path d="M18.5322,9.1377a1,1,0,0,1-.2026-1.979q.5039-.1047,1.0557-.21a1,1,0,1,1,.3759,1.9639q-.5353.1026-1.0244.2046A1.0109,1.0109,0,0,1,18.5322,9.1377Zm27.375-.0156A1.0132,1.0132,0,0,1,45.6958,9.1q-.5127-.1106-1.022-.2114a1,1,0,1,1,.3887-1.9619q.5251.1039,1.0542.2182a1,1,0,0,1-.2095,1.9776ZM23.76,8.2666a1,1,0,0,1-.1241-1.9922q.5231-.0658,1.0669-.1269a1,1,0,1,1,.2227,1.9873q-.5295.0593-1.0386.124A1.0075,1.0075,0,0,1,23.76,8.2666ZM40.6836,8.23a1,1,0,0,1-.1265-.0078q-.5214-.066-1.0381-.1226a1,1,0,0,1,.22-1.9883q.531.0594,1.0683.1265A1,1,0,0,1,40.6836,8.23ZM29.041,7.8013a1,1,0,0,1-.0493-1.9986q.531-.027,1.0757-.0459a1,1,0,1,1,.0683,1.9991q-.5287.0176-1.0434.0439Q29.0666,7.8013,29.041,7.8013Zm6.36-.0215-.043-.001q-.5267-.0219-1.0449-.0371a.9993.9993,0,0,1-.9717-1.0273.9644.9644,0,0,1,1.0273-.9717q.5332.0145,1.0743.0381a1,1,0,0,1-.042,1.999Z"/>
    <path d="M50.5073,10.313a1.0126,1.0126,0,0,1-.29-.043l-.4727-.1411A1,1,0,0,1,50.3086,8.21l.4873.145a1,1,0,0,1-.2886,1.958Z"/>
  </g>
</svg>