<svg id="svg" fill="#000000" stroke="#000000" width="200px" height="200px" version="1.1" viewBox="144 144 512 512" xmlns="http://www.w3.org/2000/svg">
    <g id="IconSvg_bgCarrier" stroke-width="0"></g>
    <g id="IconSvg_tracerCarrier" stroke-linecap="round" stroke-linejoin="round" stroke="#CCCCCC"></g>
     <g id="IconSvg_iconCarrier">
      <path xmlns="http://www.w3.org/2000/svg" d="m522.8 187.45c-8.6602 0-15.742 7.0859-15.742 15.742v73.211h-108.63v-16.531c0-8.6602-7.0859-15.742-15.742-15.742-8.6602 0-15.742 7.0859-15.742 15.742v78.719l-89.746 0.003906c-8.6602 0-15.742 7.0859-15.742 15.742 0 37 17.32 71.637 45.656 95.25v51.957c-29.125 22.828-45.656 57.465-45.656 95.25 0 8.6602 7.0859 15.742 15.742 15.742h211.76c8.6602 0 15.742-7.0859 15.742-15.742 0-37-17.32-72.422-46.445-95.25v-51.168c29.125-22.828 46.445-58.254 46.445-95.25 0-8.6602-7.0859-15.742-15.742-15.742l-90.527-0.003907v-31.488h124.38c8.6602 0 15.742-7.0859 15.742-15.742v-88.953c0-8.6602-7.0859-15.746-15.746-15.746zm-96.039 270.01v36.996h-88.164v-36.211h88.164zm44.871 123.59h-177.12c3.9375-22.043 15.742-41.723 33.852-55.105h109.42c18.105 13.383 29.914 33.062 33.848 55.105zm-33.848-155.08h-109.42c-18.105-13.383-29.914-33.852-33.852-55.105h177.12c-3.9336 21.254-15.742 41.723-33.848 55.105z"></path>

      </g>
      </svg>