<svg xmlns="http://www.w3.org/2000/svg" version="1.1" viewBox="-5.0 -10.0 110.0 135.0">
 <path d="m71.781 93.75c-0.79688 0-1.5625-0.125-2.3125-0.35938-5.0781-1.6406-7.4531-8.4219-5.2969-15.141 1.0156-3.1719 2.8906-5.8594 5.25-7.6094 2.5312-1.8594 5.3125-2.4219 7.875-1.5938 1.8594 0.59375 3.4219 1.8906 4.5156 3.75 0.4375 0.75 0.1875 1.7031-0.5625 2.1406s-1.7031 0.1875-2.1406-0.5625c-0.6875-1.1875-1.6562-2-2.7656-2.3594-1.5781-0.5-3.375-0.09375-5.0625 1.1406-1.8438 1.3594-3.3125 3.5-4.125 6.0469-1.6094 4.9844-0.09375 10.109 3.2812 11.203 1.75 0.5625 3.4062-0.09375 4.4688-0.75 0.73438-0.45312 1.7031-0.21875 2.1562 0.51562s0.21875 1.7031-0.51562 2.1562c-1.5312 0.9375-3.1562 1.4219-4.7344 1.4219z"/>
 <path d="m79.5 93.656c-2.1562 0-4.0781-0.70312-5.5469-2.0312-3.9531-3.5781-3.3125-10.75 1.4219-15.969 2.2344-2.4688 5.0469-4.1562 7.9219-4.7656 3.0625-0.64062 5.8438 0 7.8281 1.7969 3.9531 3.5781 3.3125 10.75-1.4219 15.969-2.2344 2.4688-5.0469 4.1562-7.9219 4.7656-0.78125 0.17188-1.5469 0.25-2.2812 0.25zm6.0469-19.906c-0.51562 0-1.0625 0.0625-1.6094 0.17188-2.2344 0.46875-4.4688 1.8281-6.25 3.7969-3.5156 3.875-4.2656 9.1719-1.6406 11.562 1.2188 1.1094 3.0312 1.4844 5.0938 1.0469 2.2344-0.46875 4.4688-1.8281 6.25-3.7969 3.5156-3.875 4.2656-9.1719 1.6406-11.562-0.89062-0.8125-2.0938-1.2188-3.4688-1.2188z"/>
 <path d="m78.75 87.859c-0.71875 0-1.3594-0.5-1.5312-1.2188-0.1875-0.84375 0.34375-1.6719 1.1875-1.8594 0.10938-0.03125 3-0.71875 2.8906-2.9375-0.1875-3.7188 2.9062-5.3906 5.0156-5.625 0.84375-0.078125 1.625 0.53125 1.7188 1.3906s-0.53125 1.625-1.375 1.7188c-0.54688 0.0625-2.3281 0.4375-2.2344 2.3594 0.1875 3.875-3.4062 5.7188-5.3438 6.1406-0.10938 0.03125-0.23438 0.03125-0.34375 0.03125z"/>
 <path d="m61.141 59.609c-2.5 0-4.9531-1.25-6.4375-3.5312-5.6094-8.5938-8.6094-16.344-8.9219-23.047-0.046875-0.85938 0.625-1.5938 1.4844-1.6406 0.84375-0.046875 1.5938 0.625 1.6406 1.4844 0.28125 6.1406 3.125 13.359 8.4219 21.484 1.3125 2.0156 3.8594 2.6875 5.9219 1.5781 6.7344-3.6094 17.5-11.469 23.062-16.797 1.6719-1.5938 1.8125-4.2969 0.32812-6.125-6.0938-7.5312-12.094-12.453-17.844-14.609-0.8125-0.29688-1.2188-1.2031-0.90625-2.0156 0.29688-0.8125 1.2031-1.2188 2.0156-0.90625 6.2812 2.3594 12.719 7.5938 19.172 15.562 2.5312 3.1406 2.2812 7.5938-0.59375 10.344-5.7188 5.5-16.812 13.578-23.75 17.297-1.1406 0.60938-2.375 0.90625-3.5938 0.90625z"/>
 <path d="m62.391 51.828c-0.46875 0-0.9375-0.078125-1.3906-0.21875-1.2031-0.375-2.1875-1.2031-2.7656-2.3438-4.0312-7.9219-5.8438-14.484-7.0781-19.844-0.1875-0.84375 0.32812-1.6719 1.1719-1.875 0.84375-0.1875 1.6719 0.32812 1.875 1.1719 1.1875 5.1875 2.9375 11.5 6.8125 19.125 0.1875 0.375 0.51562 0.65625 0.90625 0.78125s0.79688 0.09375 1.1406-0.10938c2.5781-1.375 5.4844-3.2188 8.4062-5.3438 1.9375-1.4062 4.2969-3.4688 6.2344-5.2188-8.25 0.625-15.109-2.7656-22.203-10.75-0.57812-0.64062-0.51562-1.6406 0.125-2.2031 0.64062-0.57812 1.625-0.51562 2.2031 0.125 7.75 8.7344 14.781 11.312 24.297 8.9219 0.6875-0.17188 1.4062 0.14062 1.75 0.75s0.23438 1.3906-0.26562 1.875c-0.25 0.23438-6.0781 5.9375-10.297 9.0156-3.0312 2.2031-6.0625 4.1406-8.7656 5.5781-0.67188 0.35938-1.4062 0.54688-2.1562 0.54688z"/>
 <path d="m92.75 14.938c-8.1719-9.8594-17.188-11.312-26.797-4.3281l-29.781 21.688c-0.46875 0.34375-0.70312 0.90625-0.625 1.4844s0.46875 1.0469 1.0156 1.25l6.3281 2.2656c0.17188 0.0625 0.34375 0.09375 0.53125 0.09375 0.32812 0 0.65625-0.10938 0.92188-0.29688l26.734-19.453c5.1719-3.7656 9.875-2.8281 14.797 2.9531 1.5156 1.7812 4.1719 2.1094 6.0312 0.75 1-0.71875 1.6562-1.8438 1.8125-3.0625s-0.1875-2.4062-0.96875-3.3438z"/>
 <path d="m47.469 93.75h-39.656c-0.85938 0-1.5625-0.70312-1.5625-1.5625s0.70312-1.5625 1.5625-1.5625h39.641c1.7969 0 3.4375-0.90625 4.4062-2.4062l0.09375-0.15625h-6.6406c-0.85938 0-1.5625-0.70312-1.5625-1.5625s0.70312-1.5625 1.5625-1.5625h9.5c0.57812 0 1.0938 0.3125 1.375 0.8125s0.25 1.1094-0.0625 1.5938l-1.6406 2.5625c-1.5469 2.4062-4.1719 3.8438-7.0312 3.8438z"/>
 <path d="m31.172 47c-0.85938 0-1.5625-0.70312-1.5625-1.5625 0-5.0781 1.9219-8.9688 6.4375-13.031 0.64062-0.57812 1.625-0.53125 2.2031 0.10938s0.53125 1.625-0.10938 2.2031c-3.8906 3.5-5.4062 6.5-5.4062 10.719 0 0.85938-0.70312 1.5625-1.5625 1.5625z"/>
 <path d="m20.938 47c-0.85938 0-1.5625-0.70312-1.5625-1.5625 0-11.547 11.641-20.25 27.078-20.25 0.85938 0 1.5625 0.70312 1.5625 1.5625s-0.70312 1.5625-1.5625 1.5625c-11.609 0-23.953 6-23.953 17.125 0 0.85938-0.70312 1.5625-1.5625 1.5625z"/>
 <path d="m24.922 22.75c-0.5 0-0.98438-0.23438-1.2812-0.67188-0.5-0.70312-0.3125-1.6875 0.39062-2.1719 0 0 0.73438-0.5625 0.78125-1.2969 0.046875-0.6875-0.51562-1.4062-1-1.8906-1.3906-1.3906-2.0312-2.8594-1.9062-4.3906 0.17188-2.2031 1.8906-3.5156 2.0938-3.6562 0.70312-0.51562 1.6719-0.35938 2.1875 0.34375 0.5 0.6875 0.35938 1.6562-0.32812 2.1719-0.03125 0.03125-0.78125 0.625-0.82812 1.4062-0.03125 0.57812 0.29688 1.2188 1 1.9219 1.3906 1.3906 2.0312 2.875 1.9062 4.3906-0.1875 2.1719-1.9219 3.4375-2.1094 3.5625-0.26562 0.1875-0.57812 0.28125-0.89062 0.28125z"/>
 <path d="m12.297 22.75c-0.5 0-0.98438-0.23438-1.2812-0.67188-0.5-0.70312-0.3125-1.6875 0.39062-2.1719 0 0 0.73438-0.5625 0.78125-1.2969 0.046875-0.6875-0.51562-1.4062-1-1.8906-1.3906-1.3906-2.0312-2.8594-1.9062-4.3906 0.17188-2.2031 1.8906-3.5156 2.0938-3.6562 0.70312-0.51562 1.6719-0.35938 2.1875 0.34375 0.5 0.6875 0.35938 1.6562-0.32812 2.1719-0.03125 0.03125-0.78125 0.625-0.82812 1.4062-0.03125 0.57812 0.29688 1.2188 1 1.9219 1.3906 1.3906 2.0312 2.875 1.9062 4.3906-0.1875 2.1719-1.9219 3.4375-2.1094 3.5625-0.26562 0.1875-0.57812 0.28125-0.89062 0.28125z"/>
 <path d="m37.547 22.75c-0.5 0-0.98438-0.23438-1.2812-0.67188-0.5-0.70312-0.3125-1.6875 0.39062-2.1719 0 0 0.73438-0.5625 0.78125-1.2969 0.046875-0.6875-0.51562-1.4062-1-1.8906-1.3906-1.3906-2.0312-2.8594-1.9062-4.3906 0.17188-2.2031 1.8906-3.5156 2.0938-3.6562 0.6875-0.51562 1.6719-0.35938 2.1875 0.34375 0.5 0.6875 0.35938 1.6562-0.32812 2.1719-0.03125 0.03125-0.78125 0.625-0.82812 1.4062-0.03125 0.57812 0.29688 1.2188 1 1.9219 1.3906 1.3906 2.0312 2.875 1.9062 4.3906-0.1875 2.1719-1.9219 3.4375-2.1094 3.5625-0.26562 0.1875-0.57812 0.28125-0.89062 0.28125z"/>
 <path d="m42.312 56.156v-4.1406c0-0.85938-0.70312-1.5625-1.5625-1.5625h-30.859c-0.85938 0-1.5625 0.70312-1.5625 1.5625 0 11.375 0 20.359 1.8281 30.5 0.57812 3.2188 3.3906 5.5469 6.6875 5.5469h16.953c3.2969 0 6.1094-2.3281 6.6875-5.5469 0.046875-0.23438 0.078125-0.46875 0.10938-0.70312 2.2344-0.015625 6.5625-0.46875 9.7656-3.3594 2.4844-2.25 3.75-5.4531 3.75-9.5312 0-9.2969-7.4844-12.188-11.812-12.75zm-8.75 25.203h-15.906c-0.85938 0-1.5625-0.70312-1.5625-1.5625s0.70312-1.5625 1.5625-1.5625h15.906c0.85938 0 1.5625 0.70312 1.5625 1.5625s-0.70312 1.5625-1.5625 1.5625zm10.828-9.9688c-0.70312 0.64062-1.7188 0.95312-2.625 1.0938 0.20312-2.4844 0.32812-4.9844 0.40625-7.5469 1.375 0.39062 3.125 1.3906 3.125 4 0 1.0781-0.29688 1.875-0.92188 2.4531z"/>
</svg>