<svg xmlns="http://www.w3.org/2000/svg" viewBox="-23 -7 82 82" x="0px" y="0px">
  <path fill="#000000" d="M704,560 C704,558.895431 704.895431,558 706,558 C707.104569,558 708,558.895431 708,560 L708,597.991889 C708,601.310652 705.314971,604 701.995742,604 L678.004258,604 C674.686898,604 672,601.312018 672,597.991889 L672,560 C672,558.895431 672.895431,558 674,558 C675.104569,558 676,558.895431 676,560 L676,597.991889 C676,599.10324 676.896399,600 678.004258,600 L701.995742,600 C703.104391,600 704,599.102951 704,597.991889 L704,560 Z M688,563 L688,563 L688,538 C688,536.895431 688.895431,536 690,536 C691.104569,536 692,536.895431 692,538 L692,563 L699,563 C700.104569,563 701,563.895431 701,565 C701,566.104569 700.104569,567 699,567 L681,567 C679.895431,567 679,566.104569 679,565 C679,563.895431 679.895431,563 681,563 L688,563 Z M688,585.171573 L688,575 C688,573.895431 688.895431,573 690,573 C691.104569,573 692,573.895431 692,575 L692,585.171573 L693.585786,583.585786 C694.366835,582.804738 695.633165,582.804738 696.414214,583.585786 C697.195262,584.366835 697.195262,585.633165 696.414214,586.414214 L691.414214,591.414214 C690.633165,592.195262 689.366835,592.195262 688.585786,591.414214 L683.585786,586.414214 C682.804738,585.633165 682.804738,584.366835 683.585786,583.585786 C684.366835,582.804738 685.633165,582.804738 686.414214,583.585786 L688,585.171573 Z" transform="translate(-672 -536)"/>
</svg>