<svg width="130" height="130" viewBox="0 0 130 130" fill="none" xmlns="http://www.w3.org/2000/svg">
    <g transform="translate(-5, 5) rotate(225 65 65)">
        <path d="M7.30283 87.7959V88.0162C7.30283 90.2561 8.15594 92.186 9.82428 93.7203C11.4926 95.2547 13.5021 95.9303 15.7657 95.8071L50.0109 93.9555C50.8451 93.907 51.4896 93.2127 51.4896 92.3914V91.8016H61.1278V84.0294H51.482V83.4321C51.482 82.6108 50.8337 81.9277 50.0034 81.8791L15.7581 80.0163C13.4831 79.8894 11.4736 80.5651 9.81671 82.1031C8.15603 83.6224 7.30283 85.5561 7.30283 87.7959ZM85.0911 75.2452C84.894 75.4393 84.6286 75.555 84.3366 75.555H74.6185C74.3228 75.555 74.0612 75.4393 73.864 75.2452C73.6669 75.0511 73.5493 74.7898 73.5493 74.5023V71.9526H85.4057V74.5023C85.4057 74.7898 85.2883 75.0511 85.0911 75.2452ZM57.5297 74.5023C57.5297 73.1025 58.6975 71.9526 60.1194 71.9526L70.5121 71.9526V74.5023C70.5121 75.6111 70.9746 76.6265 71.7178 77.3581C72.4647 78.0823 73.4922 78.5452 74.6184 78.5452H84.3365C85.4626 78.5452 86.4939 78.0898 87.237 77.3581C87.9726 76.6227 88.4428 75.6111 88.4428 74.5023V71.9526H98.8354C100.257 71.9526 101.425 73.1024 101.425 74.5023C101.425 75.9023 100.257 77.052 98.8354 77.052H94.786L94.786 95.3253C94.786 96.3668 93.9215 97.218 92.8561 97.218H66.0916C65.0338 97.218 64.1616 96.3668 64.1616 95.3253L64.1579 77.0482H60.1084C58.698 77.0482 57.5297 75.9023 57.5297 74.5023ZM94.8666 66.2184L64.3333 66.1865L64.3426 61.1907L94.9634 61.1907L94.8666 66.2184Z" fill="black"/>
    </g>
</svg>