<svg xmlns="http://www.w3.org/2000/svg" viewBox="0 0 28 35" x="0px" y="0px"><title>icon_49Artboard 1</title><g><rect x="2.081" y="14.234" width="2.203" height="9.845"/><path d="M25.879,20.483a2.412,2.412,0,0,0-.07-.35,1.907,1.907,0,0,0-.13-.25v-.01a1.486,1.486,0,0,0-.17-.18,1,1,0,0,0-.69-.23c-.17,0-5.58,1.11-5.58,1.11a2.954,2.954,0,0,1-.13.45,2.082,2.082,0,0,1-.82,1.13,1.632,1.632,0,0,1-.91.26c-.26,0-6.16-2.01-6.16-2.01a.57.57,0,0,1-.33-.71.507.507,0,0,1,.48-.4.4.4,0,0,1,.15.03l5.67,1.94a.864.864,0,0,0,.19.02,1.365,1.365,0,0,0,.19-.02,1.23,1.23,0,0,0,.57-.75,1.5,1.5,0,0,0,.05-.37,1.066,1.066,0,0,0-.54-.99c-.48-.2-6.87-3.2-7.7-3.2H6.079v6.9c2.57,1.03,5.4,2.09,7.21,2.76a5.06,5.06,0,0,0,1.75.32,4.984,4.984,0,0,0,2-.42l8.12-3.48a1.44,1.44,0,0,0,.74-1.41.443.443,0,0,0,.02-.1C25.919,20.5,25.9,20.493,25.879,20.483Z"/><path d="M11.72,5.92a.749.749,0,0,0,1.021-.288l1.371-2.448A.75.75,0,0,0,12.8,2.451L11.432,4.9A.749.749,0,0,0,11.72,5.92Z"/><path d="M16.34,5.92a.743.743,0,0,0,.365.1.751.751,0,0,0,.655-.383l1.371-2.448a.75.75,0,0,0-1.309-.733L16.052,4.9A.75.75,0,0,0,16.34,5.92Z"/><path d="M13.279,16.1c1.09.52,2.58,1.23,4.75,2.12l.05.02.05.03a2.047,2.047,0,0,1,.99,1.31l.04-.01a3.478,3.478,0,0,0,.982-1.462A4.882,4.882,0,1,0,21,8.423H9.6a1.8,1.8,0,0,0-1.8,1.8v4.73h2.15A7.982,7.982,0,0,1,13.279,16.1ZM21,10.423A2.887,2.887,0,0,1,21,16.2a2.836,2.836,0,0,1-.379-.038c.018-.173.029-5.7.029-5.7A2.837,2.837,0,0,1,21,10.423Z"/></g><text x="0" y="43" fill="#000000" font-size="5px" font-weight="bold" font-family="'Helvetica Neue', Helvetica, Arial-Unicode, Arial, Sans-serif">Created by Iconographer</text><text x="0" y="48" fill="#000000" font-size="5px" font-weight="bold" font-family="'Helvetica Neue', Helvetica, Arial-Unicode, Arial, Sans-serif">from the Noun Project</text></svg>