<svg xmlns:dc="http://purl.org/dc/elements/1.1/" xmlns:cc="http://creativecommons.org/ns#" xmlns:rdf="http://www.w3.org/1999/02/22-rdf-syntax-ns#" xmlns:svg="http://www.w3.org/2000/svg" xmlns="http://www.w3.org/2000/svg" xmlns:sodipodi="http://sodipodi.sourceforge.net/DTD/sodipodi-0.dtd" xmlns:inkscape="http://www.inkscape.org/namespaces/inkscape" version="1.1" x="0px" y="0px" viewBox="15 0 70 100">
  <g transform="translate(0,-952.36218)">
    <path d="m 69.263617,957.37532 a 2.3262213,2.3262213 0 0 0 -1.8068,1.2046 l -9.1378,16.0119 c -1.5586,-0.1428 -3.0031,-0.3701 -4.2366,-0.6646 -0.8132,-0.194 -1.5045,-0.4253 -2.1183,-0.6645 l 0.353,0 a 2.3262213,2.3262213 0 1 0 0,-4.652 l -6.2511,0 a 2.3262213,2.3262213 0 0 0 -2.326,2.326 l 0,6.2511 a 2.3262213,2.3262213 0 1 0 4.652,0 l 0,-0.4154 c 1.2975,0.7493 2.8379,1.2592 4.6105,1.6822 0.8842,0.2111 1.8375,0.3963 2.8244,0.54 l -15.4305,27.03958 -11.2769,0 -2.7206,-18.69098 21.2455,0 a 2.3262213,2.3262213 0 1 0 0,-4.652 l -23.9453,0 a 2.3262213,2.3262213 0 0 0 -2.2844,2.6583 l 7.7879,53.62238 c 0.6919,4.7538 4.8245,8.3901 9.6155,8.3901 l 13.4575,0 c 4.7908,0 8.9443,-3.6363 9.6362,-8.3901 l 7.7879,-53.62238 a 2.3262213,2.3262213 0 0 0 -2.3052,-2.6583 l -4.4859,0 a 2.3262213,2.3262213 0 1 0 0,4.652 l 1.8069,0 -7.3933,50.96408 c -0.3382,2.3236 -2.7604,4.4028 -5.0466,4.4028 l -13.4575,0 c -2.2864,0 -4.6876,-2.0792 -5.0258,-4.4028 l -4.0082,-27.6211 27.4757,0 a 2.3262213,2.3262213 0 1 0 0,-4.652 l -11.5053,0 15.202,-26.64498 c 0.3261,0.01 0.6448,0.021 0.9761,0.021 4.1706,0 7.9506,-0.5475 10.8823,-1.5161 1.4658,-0.4843 2.7295,-1.0487 3.7797,-1.8691 1.0502,-0.8203 2.0145,-2.07 2.0145,-3.6759 0,-1.3329 -0.6887,-2.4698 -1.4953,-3.2397 -0.8066,-0.7699 -1.7861,-1.3132 -2.8867,-1.7861 -1.566,-0.6728 -3.4292,-1.1701 -5.5242,-1.516 l 2.8036,-4.922 a 2.3262213,2.3262213 0 0 0 -2.2429,-3.5097 z m -3.0528,12.793 c 2.5698,0.2857 4.7799,0.8069 6.1887,1.4122 0.6674,0.2867 1.0567,0.5816 1.3084,0.7892 -0.4071,0.3136 -1.2275,0.7516 -2.3467,1.1214 -1.9187,0.6339 -4.6663,1.0972 -7.7464,1.2253 l 2.596,-4.5481 z" fill="#000000"/>
  </g>
</svg>