<svg xmlns="http://www.w3.org/2000/svg" version="1.1" viewBox="-105.0 -10.0 110.0 135.0">
 <path transform="scale(-1, 1)" d="m98.484 81.77v0.23047c0 2.3438-0.87891 4.3633-2.5977 5.9688s-3.7891 2.3125-6.1211 2.1836l-35.281-1.9375c-0.85938-0.050782-1.5234-0.77734-1.5234-1.6367v-0.61719h-9.9297v-8.1328h9.9375v-0.625c0-0.85938 0.66797-1.5742 1.5234-1.625l35.281-1.9492c2.3438-0.13281 4.4141 0.57422 6.1211 2.1836 1.7109 1.5898 2.5898 3.6133 2.5898 5.957zm-80.141-13.133c0.20312 0.20312 0.47656 0.32422 0.77734 0.32422h10.012c0.30469 0 0.57422-0.12109 0.77734-0.32422s0.32422-0.47656 0.32422-0.77734v-2.668h-12.215v2.668c0 0.30078 0.12109 0.57422 0.32422 0.77734zm28.395-0.77734c0-1.4648-1.2031-2.668-2.668-2.668h-10.707v2.668c0 1.1602-0.47656 2.2227-1.2422 2.9883-0.76953 0.75781-1.8281 1.2422-2.9883 1.2422h-10.012c-1.1602 0-2.2227-0.47656-2.9883-1.2422-0.75781-0.76953-1.2422-1.8281-1.2422-2.9883v-2.668h-10.707c-1.4648 0-2.668 1.2031-2.668 2.668s1.2031 2.668 2.668 2.668h4.1719v19.121c0 1.0898 0.89062 1.9805 1.9883 1.9805h27.574c1.0898 0 1.9883-0.89062 1.9883-1.9805l0.003906-19.125h4.1719c1.4531 0 2.6562-1.1992 2.6562-2.6641zm-35.355-17.062h25.109l-7.1094-3.4453c-2.0898-10.617 4.2031-20.09 4.2812-28.273 0.14063-14.262-19.617-14.262-19.465 0 0.089843 8.1914 6.375 17.656 4.2812 28.273zm-2.2109 8.5586h29.547c0.54688 0 1-0.45312 1-1v-4.4258h-31.547v4.4258c0 0.55469 0.45312 1 1 1z"/>
</svg>
