<svg xmlns="http://www.w3.org/2000/svg" version="1.1" viewBox="-5.0 -10.0 110.0 135.0">
 <path d="m89.699 23.094c-0.003907 7.25-3.4141 14.078-9.207 18.441-5.793 4.3633-13.297 5.7539-20.266 3.7578 0.22266-1.5039 0.33984-3.0234 0.35156-4.5469 4.9297 1.6875 10.34 1.2305 14.922-1.25 4.582-2.4844 7.9141-6.7695 9.1914-11.82 1.2812-5.0508 0.39062-10.406-2.457-14.773-2.8477-4.3633-7.3906-7.3359-12.527-8.2031-5.1367-0.86328-10.402 0.45703-14.523 3.6484-4.1172 3.1914-6.7148 7.9609-7.1602 13.152h-4.4609c0.53906-8.0547 5.2461-15.242 12.414-18.957 7.168-3.7148 15.754-3.418 22.645 0.78125 6.8945 4.2031 11.094 11.695 11.078 19.77zm-25.41 12.305c2.332-2.3242 3.0312-5.8281 1.7734-8.8672-1.2578-3.043-4.2266-5.0312-7.5195-5.0312h-7.7344c0.44922-4.457 2.7656-8.5117 6.3711-11.172 3.6016-2.6562 8.1641-3.6641 12.555-2.7773s8.1992 3.5859 10.488 7.4336c2.293 3.8516 2.8477 8.4883 1.5352 12.77-1.3164 4.2812-4.3789 7.8086-8.4336 9.707-4.0547 1.9023-8.7227 2-12.855 0.27344-0.007812-0.0625-0.011719-0.11719-0.015625-0.17969 1.4531-0.35547 2.7812-1.0977 3.8359-2.1562zm7.8242-7.5234 0.003907 0.003906c0.66016 0.38281 1.5078 0.15625 1.8906-0.50781 0.38281-0.66406 0.15625-1.5117-0.50391-1.8945l-5.5156-3.1758v-10.574c0-0.76562-0.61719-1.3867-1.3828-1.3867s-1.3867 0.62109-1.3867 1.3867v11.367c-0.003906 0.53125 0.30078 1.0195 0.78125 1.25zm-9.7812 62.965c1.5352 1.5352 1.9922 3.8398 1.1641 5.8438s-2.7852 3.3125-4.9531 3.3164h-42.875c-2.9609 0-5.3633-2.4023-5.3633-5.3672 0-2.9609 2.4023-5.3633 5.3633-5.3633h1.2188c-0.86328-4.7188-0.57812-9.5742 0.83203-14.16 1.582-4.8633 4.2578-9.3008 7.8164-12.969-3.5586-3.6719-6.2344-8.1094-7.8164-12.977-1.4102-4.582-1.6953-9.4375-0.83203-14.152h-1.2188c-2.9336-0.042969-5.293-2.4336-5.293-5.3672 0-2.9375 2.3594-5.3281 5.293-5.3672h42.875c2.9336 0.039062 5.293 2.4297 5.293 5.3672 0 2.9336-2.3594 5.3242-5.293 5.3672h-1.2188c0.86328 4.7148 0.57812 9.5703-0.82812 14.152-1.5859 4.8672-4.2578 9.3047-7.8203 12.977 3.5625 3.668 6.2383 8.1055 7.8242 12.969 1.4102 4.5859 1.6914 9.4414 0.82812 14.16h1.2188c1.4219 0 2.7812 0.5625 3.7852 1.5703zm-8.4805-14.898v-0.003906c-1.6055-4.8672-4.3789-9.2656-8.0781-12.812l-0.003907-0.007812c-0.53516-0.54297-0.53516-1.418 0.003907-1.957 3.6992-3.5469 6.4727-7.9492 8.0781-12.816 1.3242-4.3203 1.5508-8.9023 0.66016-13.332h-34.812c-0.89062 4.4297-0.66016 9.0117 0.66406 13.332 1.6016 4.8672 4.375 9.2656 8.0781 12.812v0.007812-0.003906c0.53125 0.54688 0.53125 1.418 0 1.9609-3.7031 3.5469-6.4766 7.9453-8.0781 12.816-1.3242 4.3203-1.5547 8.9023-0.66406 13.332h34.812c0.89062-4.4297 0.66406-9.0117-0.66016-13.332zm-14.434-13.801c3.7266-3.7227 7.1992-6.8438 9.543-11.73l-23.711-0.003906c2.3477 4.8906 5.8164 8.0117 9.543 11.73-6.8867 6.875-12.508 12.59-11.766 23.336h28.156c0.74219-10.742-4.8789-16.457-11.766-23.332z" fill-rule="evenodd"/>
</svg>